<svg xmlns="http://www.w3.org/2000/svg" width="160" height="43" viewBox="0 0 160 43">
    <g fill="none" fill-rule="evenodd">
        <path fill="#2C3759" d="M58.798 4.193c-.052-.266-.106-.4-.342-.4-.238 0-.315.134-.368.4l-1.607 7.374h3.924l-1.607-7.374zm7.503 15.895h-3.686c-.263 0-.474-.214-.527-.482l-.947-4.38h-5.397l-.947 4.38c-.055.268-.265.482-.528.482h-3.686c-.263 0-.447-.16-.447-.427 0-.028.026-.081.026-.134l3.922-16.561C54.69.4 56.64.001 58.456.001c1.817 0 3.738.4 4.342 2.965l3.924 16.561c0 .053.027.106.027.134 0 .267-.184.427-.448.427zM78.046 8.441c0-3.606-1.528-4.568-3.897-4.568-.66 0-1.502.027-1.869.054V16.4c.367.027 1.21.053 1.87.053 2.368 0 3.896-.96 3.896-4.568V8.441zm-3.897 11.886c-2.185 0-4.528-.213-5.609-.4-.5-.08-.763-.321-.763-.935V1.336c0-.615.263-.855.763-.935 1.08-.187 3.424-.4 5.61-.4 5.238 0 8.398 2.804 8.398 8.44v3.445c0 5.637-3.16 8.441-8.399 8.441zM101.4 20.087h-3.476c-.236 0-.42-.24-.42-.534V8.413c0-.185-.079-.212-.132-.212-.08 0-.132.053-.211.187l-2.369 4.406a.844.844 0 0 1-.79.456h-2.107c-.343 0-.605-.134-.79-.456l-2.37-4.406c-.079-.134-.13-.187-.21-.187-.052 0-.131.027-.131.213v11.14c0 .293-.185.533-.422.533h-3.475c-.211 0-.447-.08-.447-.374V1.15c0-.562.394-.908.948-.908h2.474c.552 0 .922.267 1.16.721l4.027 7.612c.105.213.185.348.29.348.105 0 .185-.135.289-.348L97.266.962c.237-.454.606-.721 1.16-.721h2.475c.552 0 .946.373.946.934v18.538c0 .294-.236.374-.447.374M108.22 20.087h-3.526c-.29 0-.474-.24-.474-.534V.748c0-.293.184-.507.474-.507h3.527c.29 0 .5.214.5.507v18.805c0 .294-.21.534-.5.534M121.07 6.25c0-1.63-1.237-2.376-3.45-2.376-.368 0-1.738.052-2.053.079v5.128c.289.028 1.58.054 1.87.054 2.764 0 3.633-.721 3.633-2.537v-.347zm4.739 13.837h-4.029c-.29 0-.395-.266-.526-.534l-3.528-6.758-.29.026c-.553 0-1.369-.053-1.87-.053v6.785a.532.532 0 0 1-.525.534h-3.425a.532.532 0 0 1-.526-.534V1.628c0-.907.369-1.147 1.186-1.28C113.486.16 115.725 0 117.621 0c4.475 0 7.926 1.522 7.926 6.25v.348c0 2.832-1.476 4.568-3.399 5.342l3.977 7.533a.7.7 0 0 1 .08.294c0 .187-.107.32-.396.32zM135 4.193c-.053-.266-.106-.4-.343-.4-.238 0-.316.134-.37.4l-1.605 7.374h3.924l-1.607-7.374zm7.503 15.895h-3.688c-.262 0-.472-.214-.525-.482l-.948-4.38h-5.398l-.946 4.38c-.055.268-.266.482-.528.482h-3.686c-.262 0-.448-.16-.448-.427 0-.028.027-.081.027-.134l3.923-16.561C130.89.4 132.84.001 134.656.001c1.817 0 3.739.4 4.343 2.965l3.925 16.561c0 .053.026.106.026.134 0 .267-.184.427-.447.427zM154.167 19.98c-.869.188-2.896.348-4.292.348-3.396 0-6.423-.882-6.423-5.743V.775c0-.294.236-.534.527-.534h3.449c.29 0 .527.24.527.534v13.81c0 1.39.446 1.816 1.683 1.816h4.53c.289 0 .526.241.526.534v2.484c0 .348-.158.482-.527.561M67.513 42.602h-3.476c-.236 0-.42-.24-.42-.534v-11.14c0-.185-.079-.212-.131-.212-.082 0-.133.053-.213.187l-2.369 4.406a.844.844 0 0 1-.79.456h-2.106c-.343 0-.606-.135-.79-.456l-2.37-4.406c-.079-.134-.13-.187-.21-.187-.053 0-.132.027-.132.213v11.14c0 .292-.184.533-.422.533H50.61c-.211 0-.447-.08-.447-.374V23.663c0-.56.393-.908.948-.908h2.474c.552 0 .921.267 1.157.721l4.03 7.613c.104.214.185.348.289.348.106 0 .184-.134.29-.348l4.028-7.613c.237-.454.606-.72 1.159-.72h2.474c.553 0 .948.373.948.934v18.538c0 .295-.237.374-.447.374M77.65 26.71c-.052-.267-.105-.402-.341-.402-.238 0-.316.135-.369.401l-1.605 7.372h3.922l-1.606-7.372zm7.505 15.893h-3.688c-.263 0-.472-.214-.526-.48l-.947-4.382h-5.398l-.947 4.381c-.053.267-.264.481-.527.481h-3.686c-.262 0-.447-.16-.447-.427 0-.027.025-.081.025-.134l3.924-16.56c.605-2.566 2.554-2.966 4.371-2.966 1.817 0 3.737.4 4.342 2.965l3.924 16.561c0 .053.027.107.027.134 0 .266-.184.427-.447.427zM96.609 28.765c0-1.63-1.237-2.377-3.449-2.377-.368 0-1.738.054-2.054.08v5.128c.29.028 1.58.055 1.87.055 2.764 0 3.633-.721 3.633-2.539v-.347zm4.74 13.838h-4.03c-.288 0-.395-.268-.526-.535l-3.528-6.759-.289.028c-.554 0-1.37-.055-1.87-.055v6.786a.532.532 0 0 1-.526.535h-3.425a.532.532 0 0 1-.525-.535V24.144c0-.907.37-1.148 1.185-1.282 1.21-.186 3.448-.346 5.345-.346 4.475 0 7.926 1.52 7.926 6.249v.347c0 2.833-1.476 4.569-3.399 5.342l3.976 7.535c.053.106.08.213.08.292 0 .188-.105.322-.395.322zM118.41 23.423l-6.265 9.029 6.291 9.59c.08.106.105.213.105.293 0 .16-.131.267-.368.267h-4.529c-.316 0-.447-.16-.58-.373l-5.344-8.815v8.655a.532.532 0 0 1-.525.533h-3.45a.532.532 0 0 1-.527-.533V23.263c0-.294.237-.507.528-.507h3.449c.288 0 .525.213.525.507v8.495l5.792-8.682c.132-.214.29-.32.58-.32h4.028c.29 0 .421.133.421.293 0 .108-.053.24-.131.374M130.075 42.495c-.92.135-2.265.348-5.108.348-3.396 0-6.398-.882-6.398-5.743V28.23c0-4.86 3.027-5.715 6.424-5.715 2.844 0 4.161.214 5.082.347.37.053.527.186.527.534v2.484a.532.532 0 0 1-.527.533h-5.345c-1.237 0-1.686.428-1.686 1.817v2.432h6.82c.29 0 .527.241.527.533v2.539a.531.531 0 0 1-.527.533h-6.82V37.1c0 1.389.449 1.817 1.686 1.817h5.345c.289 0 .527.24.527.533v2.485c0 .347-.158.507-.527.56M145.005 26.522h-4.266v15.547a.532.532 0 0 1-.527.534h-3.448a.533.533 0 0 1-.527-.534V26.522h-4.292a.51.51 0 0 1-.526-.507v-2.752a.51.51 0 0 1 .526-.508h13.06c.288 0 .552.214.552.508v2.752c0 .292-.264.507-.552.507M152.087 42.842c-2.08 0-3.632-.239-4.976-.586-.263-.081-.527-.241-.527-.534v-2.618c0-.375.212-.508.475-.508h.078c1.08.107 3.976.32 5.003.32 1.818 0 2.344-.588 2.344-1.87 0-.774-.368-1.203-1.739-2.03l-3.631-2.19c-2.45-1.47-3.108-3.152-3.108-5.101 0-2.94 1.632-5.21 6.74-5.21 1.922 0 4.58.321 5.581.588.21.053.395.188.395.48v2.699c0 .24-.105.453-.447.453h-.054c-.737-.053-3.79-.293-5.58-.293-1.5 0-2.055.454-2.055 1.416 0 .747.344 1.095 1.764 1.87l3.37 1.842c2.739 1.495 3.556 3.26 3.556 5.423 0 2.832-1.844 5.85-7.189 5.85"/>
        <path fill="#D7282F" d="M22.878 30.993c0 6.41-5.121 11.607-11.439 11.607S0 37.403 0 30.993c0-6.41 5.122-11.606 11.44-11.606s11.44 5.197 11.44 11.606"/>
        <path fill="#2A7DE1" d="M41.989 11.613c0 6.412-5.122 11.605-11.439 11.605-6.318 0-11.44-5.193-11.44-11.605 0-6.41 5.122-11.606 11.44-11.606 6.317 0 11.439 5.195 11.439 11.606"/>
    </g>
</svg>
