<svg xmlns="http://www.w3.org/2000/svg" width="174" height="26" viewBox="0 0 174 26">
    <g fill="none" fill-rule="evenodd">
        <path fill="#242D48" d="M52.588 25.974c-1.39 0-2.758-.011-4.125.008-.29.004-.448-.091-.604-.328-4.452-6.775-8.912-13.546-13.37-20.317l-.185-.281v.568c0 6.603-.006 13.207.013 19.81.001.477-.133.565-.564.55a50.16 50.16 0 0 0-2.855-.003c-.284.007-.342-.079-.342-.35.007-8.364.006-16.727-.001-25.09 0-.276.065-.355.345-.351 1.308.016 2.617.017 3.925-.001.272-.004.395.126.527.32a31606.55 31606.55 0 0 0 11.54 16.985c1.895 2.786 3.793 5.569 5.688 8.354.014.02.004.057.008.126"/>
        <path fill="#23C3A8" d="M171.14 11.289V2.895c0-.692.01-1.384-.003-2.076-.005-.247.06-.354.322-.345.475.016.952.015 1.427-.001.266-.01.37.074.364.357-.015.737-.002 1.474-.002 2.211 0 3.776-.006 7.553.01 11.329.002.42-.08.604-.53.548-.568-.071-1.24.215-1.688-.125-.435-.331-.66-.947-.971-1.44l-5.91-9.34c-.03-.047-.068-.089-.155-.2v.632c0 3.325-.007 6.65.009 9.975.002.393-.09.54-.493.501a6.149 6.149 0 0 0-1.158-.003c-.392.037-.456-.12-.453-.48.017-2.046.007-4.093.007-6.139 0-2.467.007-4.934-.007-7.402-.002-.334.077-.45.418-.429.504.03 1.012.02 1.517.006.232-.007.378.066.507.271 1.908 3.029 3.823 6.052 5.738 9.077.318.502.64 1.001.96 1.502.03-.012.06-.024.092-.035"/>
        <path fill="#242D48" d="M24.552 13.087c0-4.167.005-8.335-.01-12.502 0-.34.073-.428.408-.417.833.027 1.667.029 2.499 0 .362-.014.46.07.46.455-.014 7.356-.01 14.713-.01 22.07 0 .962-.013 1.926.007 2.888.006.307-.064.41-.384.401a48.298 48.298 0 0 0-2.588 0c-.312.008-.39-.078-.39-.393.012-4.168.008-8.335.008-12.502"/>
        <path fill="#23C3A8" d="M139.844 13.01c3.045.102 5.112-2.577 5.077-5.29-.04-3.017-2.241-5.352-5.071-5.352-2.879 0-5.157 2.37-5.098 5.408.056 2.924 2.149 5.324 5.092 5.235m7.115-5.272c-.006 3.937-3.214 7.165-7.107 7.152-3.938-.013-7.182-3.258-7.164-7.164.019-4.037 3.189-7.204 7.2-7.194 3.964.01 7.078 3.184 7.071 7.206"/>
        <path fill="#242D48" d="M52.58 20.002c-1.2-1.767-2.37-3.491-3.546-5.211-.093-.137-.096-.274-.096-.423 0-4.647.003-9.295-.008-13.942 0-.297.091-.34.351-.335 1.011.015 2.022.014 3.033 0 .247-.003.326.053.326.318-.01 6.497-.01 12.995-.014 19.492 0 .012-.01.023-.046.1"/>
        <path fill="#23C3A8" d="M80.367 3.297c-1.104 1.672-2.134 3.23-3.161 4.791-1.432 2.175-2.864 4.35-4.288 6.53-.129.198-.262.287-.502.28-.594-.019-1.19 0-1.784-.01-.12-.001-.292.089-.354-.075-.044-.116.082-.213.148-.31l2.802-4.12c2.163-3.18 4.329-6.359 6.482-9.545.156-.23.317-.313.582-.305.579.017 1.16.03 1.738-.004.39-.024.463.125.462.484-.012 3.639-.007 7.278-.007 10.916 0 .857-.014 1.715.007 2.571.008.326-.102.415-.407.396-.4-.024-.805-.03-1.203.003-.399.034-.527-.082-.524-.51.018-3.504.01-7.007.009-10.51v-.582M124.395 14.893c-1.056.022-2.116.032-3.13-.313-2.631-.895-4.142-2.814-4.625-5.51-.478-2.667.26-5.008 2.286-6.845 1.204-1.092 2.655-1.63 4.268-1.685.89-.03 1.783 0 2.675-.013.254-.003.385.044.369.34-.022.405-.017.813 0 1.218.01.256-.08.341-.332.336-.698-.013-1.399.027-2.095-.011-3.27-.179-5.378 2.434-5.285 5.443.094 3.01 2.193 5.137 5.17 5.14.728.001 1.456.01 2.184-.006.268-.005.382.07.356.354-.047.503.203 1.151-.108 1.473-.27.279-.904.06-1.377.078-.118.005-.237 0-.356 0M105.35 8.662c0-1.925-.007-3.85.008-5.774.002-.341-.1-.438-.43-.426-.669.026-1.338 0-2.007.012-.231.005-.32-.077-.314-.31.011-.45.017-.902.002-1.352-.01-.254.103-.294.32-.293 2.319.006 4.638.009 6.957-.001.25-.001.299.09.292.312-.012.436-.015.872.002 1.308.011.258-.083.342-.331.337-.61-.012-1.22.023-1.828-.014-.444-.027-.585.102-.582.57.02 3.714.011 7.428.012 11.142 0 .075-.01.152.002.225.064.387-.068.542-.476.5a6.266 6.266 0 0 0-1.158 0c-.363.03-.48-.076-.476-.463.02-1.924.01-3.849.01-5.773h-.002zM89.177 7.696c0-2.242.009-4.484-.008-6.726-.003-.365.108-.466.452-.443.414.027.834.03 1.248-.002.347-.026.413.103.412.432-.014 2.754-.008 5.507-.007 8.26 0 1.098.014 2.197-.008 3.295-.008.363.072.487.458.48 1.353-.027 2.707-.002 4.06-.019.335-.004.492.066.46.443a8.029 8.029 0 0 0-.003 1.127c.016.286-.095.353-.361.352a523.87 523.87 0 0 0-6.337.003c-.35.003-.372-.153-.372-.432.008-2.257.005-4.514.005-6.77h.001zM153.453 7.667c0-2.225.01-4.45-.009-6.676-.003-.384.107-.5.473-.466.324.031.655.028.98.001.34-.028.458.07.453.44-.021 1.578-.009 3.157-.009 4.736 0 2.917-.007 5.834.008 8.75.002.367-.105.48-.45.442-.467-.05-1.077.202-1.37-.102-.269-.28-.071-.888-.073-1.351-.007-1.925-.003-3.85-.003-5.774"/>
        <path fill="#242D48" d="M166.336 19.446c-.7 2.107-1.395 4.176-2.068 6.253-.119.366-.376.188-.579.233-.22.049-.292-.062-.356-.272-.523-1.69-1.064-3.376-1.61-5.096-.202.23-.224.515-.305.764-.46 1.414-.908 2.831-1.343 4.253-.083.27-.195.363-.486.362-.299 0-.425-.075-.52-.374-.608-1.896-1.244-3.783-1.863-5.675-.048-.145-.281-.384-.006-.439.237-.047.602-.219.745.284.348 1.231.756 2.445 1.138 3.667.164.524.324 1.049.512 1.658.29-.932.561-1.793.827-2.656.272-.882.55-1.762.804-2.65.076-.266.209-.333.47-.338.278-.005.414.068.5.35.499 1.667 1.018 3.327 1.53 4.99.02.07.021.15.148.178l1.476-4.839c.209-.682.21-.682.986-.653M145.665 24.508l.012-4.598c0-.264-.08-.51.377-.5.462.011.355.279.356.525.003 1.834.006 3.667-.007 5.5-.001.16.162.447-.13.482-.27.031-.58.126-.805-.2-.51-.735-1.048-1.45-1.576-2.172l-2.063-2.814c-.015.26-.03.414-.03.568-.003 1.428-.015 2.856.007 4.283.005.321-.102.362-.373.358-.256-.004-.39-.016-.386-.35.019-1.893.006-3.787.015-5.68 0-.157-.115-.43.113-.457.262-.03.566-.148.802.183.89 1.25 1.805 2.484 2.714 3.721.298.405.606.802.91 1.203l.066.055-.002-.107M75.693 20.694c0 1.692-.013 3.285.01 4.877.006.362-.149.36-.412.37-.285.012-.37-.06-.368-.366.016-1.88.004-3.76.015-5.641.001-.164-.149-.453.138-.486.267-.03.57-.13.802.197.987 1.387 1.998 2.756 3 4.132l.61.835c.139-.084.067-.217.067-.32.006-1.49.006-2.979.001-4.468 0-.242-.02-.424.334-.408.303.013.398.073.395.397-.016 1.88-.004 3.76-.015 5.641 0 .156.124.433-.104.458-.262.03-.57.148-.805-.18-.927-1.301-1.878-2.584-2.82-3.873l-.848-1.165M119.374 20.68c0 1.707-.008 3.287.007 4.866.002.306-.074.393-.386.4-.328.008-.348-.13-.346-.392.008-1.865 0-3.73.01-5.596.001-.172-.132-.456.112-.504.28-.055.597-.12.832.227.51.753 1.063 1.477 1.6 2.213.654.896 1.31 1.792 2.052 2.66v-1.598c0-1.068.014-2.136-.009-3.204-.007-.315.119-.335.364-.326.239.01.405-.014.401.342-.021 1.865-.005 3.73-.018 5.596 0 .183.143.489-.106.544-.29.064-.624.13-.872-.231-.6-.874-1.238-1.72-1.863-2.576-.569-.778-1.14-1.553-1.778-2.421M91.966 22.701c0-.962.009-1.925-.006-2.887-.004-.276.043-.396.356-.39 1.234.018 2.469.018 3.703-.001.305-.005.32.121.33.369.013.284-.074.348-.346.343-.981-.017-1.963.003-2.944-.013-.269-.005-.362.057-.347.343.025.495.023.993.001 1.488-.011.269.048.357.334.35.847-.023 1.695 0 2.543-.013.261-.004.397.023.389.353-.008.301-.083.378-.377.37-.862-.02-1.724 0-2.587-.012-.225-.003-.308.049-.3.294.019.556.018 1.113.001 1.669-.007.248.087.296.31.294 1.041-.01 2.082.006 3.123-.012.27-.004.313.092.31.333-.004.242-.013.37-.324.364-1.279-.023-2.558-.02-3.837-.003-.284.004-.344-.078-.339-.35.017-.963.007-1.926.007-2.889M150.16 22.68c0-.947.01-1.895-.006-2.842-.005-.292.04-.422.376-.416 1.219.021 2.438.022 3.657 0 .325-.006.339.13.357.393.023.326-.14.319-.368.317-.982-.008-1.963.004-2.944-.009-.245-.003-.336.052-.324.319.023.51.022 1.022.001 1.533-.01.254.058.33.314.326.862-.016 1.725.008 2.587-.014.309-.008.357.107.36.384.004.289-.091.347-.358.341-.862-.017-1.724.004-2.586-.012-.257-.005-.326.07-.316.326.021.51.026 1.023.001 1.533-.014.308.063.41.386.403 1.01-.023 2.022.008 3.032-.017.307-.008.323.11.324.358 0 .236-.026.341-.304.338a159.713 159.713 0 0 0-3.88-.002c-.262.002-.318-.079-.315-.327.014-.977.006-1.955.006-2.932M132.871 23.974c0 .12-.021.246.004.36.163.747-.265 1.057-.865 1.311-1.995.846-4.117-.059-4.72-2.038-.553-1.812.635-3.77 2.482-4.114 1.046-.195 1.997.007 2.871.61.15.104.337.205.117.4-.137.12-.147.457-.511.192-1.535-1.12-3.627-.548-4.198 1.146-.338 1.003-.14 1.945.635 2.683.845.802 1.841.94 2.925.543.433-.159.696-.386.618-.913-.051-.353.004-.721-.014-1.081-.011-.238.035-.345.306-.336.247.008.39.026.358.335-.03.298-.006.601-.006.902h-.002zM99.4 24.31c.783.668 1.615 1.024 2.608.88.573-.082.973-.393 1.028-.822.068-.53-.136-.883-.74-1.128-.56-.226-1.151-.37-1.711-.594-.98-.391-1.401-1.347-.99-2.204.356-.742 1.044-.941 1.765-1.022.753-.084 1.465.111 2.14.457.385.198.047.388.01.58-.048.253-.176.187-.342.101-.66-.34-1.345-.531-2.094-.346-.403.1-.73.293-.796.733-.066.44.189.737.546.942.414.238.877.346 1.324.491.323.105.644.216.934.394a1.641 1.641 0 0 1-.054 2.845c-1.084.612-2.885.376-3.773-.507-.328-.327.144-.49.145-.8M168.759 24.325c.762.651 1.58 1.004 2.56.867.58-.082.992-.376 1.063-.797.086-.508-.161-.917-.77-1.161-.546-.22-1.123-.362-1.67-.582-1.058-.426-1.47-1.474-.932-2.356.38-.622 1.015-.806 1.675-.876.753-.08 1.466.108 2.144.45.385.195.064.382.023.578-.066.313-.216.167-.376.09-.668-.325-1.357-.522-2.103-.317-.359.099-.68.265-.746.675-.07.433.128.747.498.97.425.254.903.356 1.361.512.336.114.674.222.973.417a1.64 1.64 0 0 1-.055 2.802c-1.053.638-2.954.401-3.816-.494-.313-.325.13-.49.17-.778M83.142 19.45c.79-.041.79-.042 1.06.649l1.937 4.978c.362-.924.7-1.79 1.04-2.655.31-.788.625-1.575.934-2.363.257-.654.255-.654 1.012-.605-.49 1.222-.972 2.433-1.459 3.642-.35.868-.717 1.73-1.051 2.603-.096.252-.258.247-.451.232-.19-.014-.403.084-.515-.2-.824-2.084-1.66-4.164-2.507-6.282M109.177 25.65c.01.366-.207.28-.399.282-.196.003-.395.07-.39-.287.019-1.712-.001-3.424.017-5.136.003-.322-.083-.406-.392-.388-.474.028-.951-.015-1.424.016-.306.02-.256-.161-.253-.337.004-.182-.07-.382.262-.378 1.47.017 2.94.016 4.41.002.309-.003.238.19.235.353-.002.158.088.37-.227.357-.52-.02-1.04.006-1.559-.01-.235-.009-.3.063-.296.3.014.87.006 1.742.007 2.613 0 .87-.018 1.742.009 2.612zM114.89 22.655c0 .99-.017 1.982.008 2.973.009.336-.16.317-.378.306-.193-.01-.4.077-.397-.287.02-1.967.02-3.934.004-5.9-.003-.33.146-.32.374-.321.247-.002.41-.002.4.346-.029.96-.01 1.922-.011 2.883M71.175 22.655c0 .99-.018 1.983.01 2.973.01.34-.16.306-.374.306-.215 0-.371.033-.368-.307.022-1.953.02-3.906.002-5.858-.003-.34.145-.334.393-.347.278-.014.35.07.345.349-.018.96-.007 1.922-.008 2.884M22.08 22.969c0-7.433-.005-14.866.01-22.299V.166H17.512l-.592.875-.017.025C11.916 8.461 6.893 15.832 1.879 23.21L0 25.975c1.491 0 2.914-.007 4.337.006.223.003.308-.116.409-.269 4.508-6.85 9.018-13.7 13.594-20.65v1.136c0 6.454.004 12.91-.007 19.364 0 .34.08.429.415.42a67.087 67.087 0 0 1 2.99 0c.282.005.352-.075.347-.35-.016-.888-.006-1.776-.006-2.663M61.167 25.978h.728V.09h-.728z"/>
    </g>
</svg>
