<svg xmlns="http://www.w3.org/2000/svg" width="117" height="37" viewBox="0 0 117 37">
    <g fill="none" fill-rule="evenodd">
        <path fill="#699BE9" d="M100.615 22.33c-1.22 4.139-5.572 6.507-9.721 5.29-4.147-1.218-6.521-5.56-5.3-9.698 1.219-4.139 5.571-6.507 9.719-5.29 4.148 1.217 6.522 5.56 5.302 9.698"/>
        <path fill="#FFF" d="M95.044 18.99c-.305 1.031-1.891.435-2.408.283l.537-1.822c.517.151 2.187.464 1.87 1.54m-.41 2.959c-.333 1.134-2.24.434-2.86.252l.592-2.009c.62.182 2.617.575 2.268 1.757m2.236-2.867c.215-1.112-.614-1.749-1.764-2.198l.442-1.5-.915-.268-.43 1.46a38.06 38.06 0 0 0-.734-.205l.433-1.47-.914-.268-.442 1.499c-.2-.054-.395-.108-.585-.163l.002-.005-1.262-.37-.287.974s.68.186.664.195c.37.109.428.359.408.554l-.503 1.709a.762.762 0 0 1 .095.034l-.097-.028-.705 2.393c-.051.112-.174.277-.433.202.008.013-.665-.196-.665-.196l-.503 1.037 1.19.35c.222.065.438.132.652.197l-.447 1.516.914.268.442-1.5c.25.079.492.152.73.221l-.441 1.494.914.268.447-1.514c1.564.364 2.754.293 3.313-1.109.45-1.128.055-1.807-.756-2.272.61-.114 1.082-.491 1.237-1.305M100.452 27.878l5.334-7.897-5.104-7.668h5.004l3.046 4.516 3.095-4.516h4.86l-5.133 7.596 5.335 7.969h-5.09l-3.235-4.688-3.15 4.688zM51.667 23.725c-.492.24-1.179.358-2.062.358h-3.79v-5.415h3.859c.873.01 1.551.124 2.034.345.864.395 1.297 1.12 1.297 2.177 0 1.25-.446 2.094-1.338 2.535zm-5.852-12.898h3.276c.975 0 1.777.106 2.406.317.73.303 1.094.928 1.094 1.874 0 .855-.276 1.45-.827 1.785-.552.335-1.27.503-2.153.503h-3.796v-4.479zm8.34 5.884c.684-.349 1.202-.735 1.553-1.157.629-.753.943-1.75.943-2.99 0-1.204-.311-2.238-.934-3.1-1.035-1.407-2.794-2.127-5.276-2.164h-8.686V27.61h8.02c1.035 0 1.993-.091 2.877-.275.883-.184 1.65-.524 2.3-1.02a5.609 5.609 0 0 0 1.442-1.599c.604-.955.906-2.034.906-3.238 0-1.166-.264-2.159-.793-2.976-.529-.818-1.313-1.415-2.351-1.792zM59.65 10.8h4.516V7.176H59.65zM59.65 27.611h4.516v-15.02H59.65zM75.744 24.057c-2.054 0-3.719-1.755-3.719-3.92s1.665-3.92 3.72-3.92c2.053 0 3.718 1.755 3.718 3.92s-1.665 3.92-3.719 3.92m7.696-4.884c-.119-1.918-.711-3.511-1.78-4.777-1.203-1.424-2.868-2.136-4.996-2.136-.37 0-.717.026-1.045.07a6.867 6.867 0 0 0-3.632 1.491V7.212h-4.205v20.4h4.146v-1.206a6.882 6.882 0 0 0 3.572 1.526c.378.052.784.079 1.217.079 2.125 0 3.781-.767 4.967-2.301.786-1.017 1.31-2.21 1.576-3.578a8.48 8.48 0 0 0 .18-2.959M17.45 33.366a1.88 1.88 0 0 0-2.48.014L3.688 26.876a1.881 1.881 0 0 0 .006-1.117l10.804-7.387a2.226 2.226 0 0 0 3.39.16l10.966 7.155a1.876 1.876 0 0 0-.037 1.127l-11.366 6.552zM14.779 3.102c.264.312.627.536 1.041.626l-.029 11.105a2.229 2.229 0 0 0-1.76 2.178c0 .199.029.39.078.574L3.252 25.007a1.885 1.885 0 0 0-.972-.542V11.613A1.886 1.886 0 0 0 3.748 9.46l11.03-6.358zm13.991 6.391a1.886 1.886 0 0 0 1.467 2.118l-.033 12.864c-.337.079-.64.247-.88.48l-10.975-7.162c.092-.244.144-.507.144-.782 0-1.094-.79-2.002-1.83-2.19l.028-11.112c.388-.1.728-.318.977-.616l11.102 6.4zm2.305 14.984l.033-12.884a1.885 1.885 0 1 0-2.01-2.915L18.055 2.313A1.887 1.887 0 0 0 16.218 0a1.886 1.886 0 0 0-1.834 2.324L3.406 8.653A1.887 1.887 0 0 0 0 9.769c0 .876.6 1.61 1.41 1.822v12.896a1.885 1.885 0 1 0 1.831 3.136l11.226 6.47a1.887 1.887 0 0 0 1.753 2.584 1.887 1.887 0 0 0 1.745-2.602l11.275-6.5a1.886 1.886 0 0 0 3.283-1.267c0-.89-.618-1.633-1.448-1.831z"/>
    </g>
</svg>
