<svg xmlns="http://www.w3.org/2000/svg" width="140" height="28" viewBox="0 0 140 28">
    <g fill="#FFBA00" fill-rule="evenodd">
        <path d="M13.98 0L5.39 8.575l3.16 3.155 5.43-5.421 5.432 5.424 3.159-3.154L13.979 0zM0 13.957l3.16 3.154 3.159-3.155-3.16-3.154L0 13.957zm21.64.001l3.16 3.154 3.159-3.154-3.16-3.154-3.159 3.154zm-7.66 7.647l-5.43-5.42-3.164 3.15.004.004 8.59 8.575 8.59-8.578.002-.002-3.16-3.152-5.433 5.423z"/>
        <path d="M128.52 6.764h11.162V9.66h-7.942v3.003h6.99v2.897h-6.99v3.109h8.049v2.897H128.52V6.764zm-9.917 15.056a7.686 7.686 0 0 1-3.029-.592 7.442 7.442 0 0 1-2.414-1.617 7.356 7.356 0 0 1-1.588-2.422 7.785 7.785 0 0 1-.572-2.982v-.042c0-1.057.19-2.047.572-2.97.38-.924.91-1.735 1.588-2.433a7.363 7.363 0 0 1 2.435-1.65c.946-.4 1.992-.602 3.135-.602.692 0 1.324.057 1.895.17.572.112 1.091.267 1.557.465a6.78 6.78 0 0 1 1.293.718c.392.28.76.591 1.1.93l-2.075 2.39a7.874 7.874 0 0 0-1.768-1.226c-.6-.296-1.275-.444-2.023-.444-.621 0-1.197.12-1.726.36-.52.232-.985.57-1.366.993-.381.423-.678.913-.89 1.47a4.996 4.996 0 0 0-.317 1.787v.042c0 .634.106 1.234.317 1.797.212.564.504 1.058.88 1.48.373.423.825.758 1.354 1.005.53.247 1.113.37 1.748.37.847 0 1.563-.155 2.15-.465a8.334 8.334 0 0 0 1.747-1.269l2.076 2.094c-.368.395-.764.763-1.186 1.1a7.048 7.048 0 0 1-1.346.835c-.486.232-1.02.409-1.598.528-.58.12-1.229.18-1.949.18zM93.691 6.764h3.007l6.947 9.114V6.764h3.22v14.803h-2.775l-7.18-9.41v9.41h-3.22V6.764zm-9.452 8.606l-1.97-4.8-1.97 4.8h3.94zm-3.431-8.712h3.007l6.355 14.909h-3.41l-1.356-3.32h-6.27l-1.355 3.32h-3.325l6.354-14.909zm-23.049.106h3.007l6.948 9.114V6.764h3.219v14.803h-2.774l-7.18-9.41v9.41h-3.22V6.764zm-8.202 14.803h3.262V6.764h-3.262v14.803zm-9.62-2.855c.72 0 1.284-.13 1.694-.391.41-.261.614-.667.614-1.217v-.042c0-.493-.19-.884-.572-1.173-.38-.29-.995-.434-1.842-.434h-3.77v3.257h3.876zm-.869-5.964c.72 0 1.292-.123 1.716-.37.423-.246.635-.645.635-1.195v-.042c0-.493-.184-.87-.55-1.131-.368-.261-.897-.392-1.59-.392h-3.218v3.13h3.007zm-6.184-5.984h6.871c1.706 0 2.995.437 3.87 1.31.676.678 1.014 1.516 1.014 2.517v.043c0 .423-.053.796-.158 1.12-.099.311-.24.607-.421.878-.17.256-.376.487-.61.687-.23.196-.48.367-.747.507.857.325 1.532.765 2.024 1.322.491.558.738 1.33.738 2.316v.042c0 .677-.13 1.269-.391 1.776-.261.508-.635.93-1.121 1.27-.487.338-1.072.591-1.755.76a9.469 9.469 0 0 1-2.273.254h-7.041V6.764zm-15.7 7.191h.001l-3.206-3.2-2.369 2.365-.272.272-.562.56-.004.005.004.005 3.203 3.198 3.206-3.201.002-.002-.003-.002z"/>
    </g>
</svg>
