<svg xmlns="http://www.w3.org/2000/svg" width="94" height="29" viewBox="0 0 94 29">
    <g fill="#FFF" fill-rule="evenodd">
        <path d="M84.13 21.13l8.725.041c.11 0 .2.09.2.2l-.016 2.249c-.002.11-.09.2-.2.203l-14.307.191a.206.206 0 0 1-.206-.2c0-.042.012-.083.036-.117L88.348 8.97a.204.204 0 0 0-.166-.317h-8.57a.209.209 0 0 1-.203-.203V6.034a.2.2 0 0 1 .196-.203h14.017a.203.203 0 0 1 .167.317l-9.817 14.667a.2.2 0 0 0 .158.3v.014zM68.638 15.523h8.156c.09 0 .161.073.161.162v1.868c0 .09-.072.162-.16.162h-8.157a.16.16 0 0 1-.16-.162v-1.868a.16.16 0 0 1 .16-.162M50.62 10.69h2.642c.133 0 .24.108.24.241v12.745a.242.242 0 0 1-.24.243H50.62a.242.242 0 0 1-.24-.243V10.931c0-.133.107-.242.24-.242M51.92 4.71c1.055 0 1.91.86 1.91 1.92s-.855 1.919-1.91 1.919-1.91-.86-1.91-1.92.855-1.92 1.91-1.92M58.756 7.664h2.561c.104 0 .187.084.187.188v2.76c0 .105.086.19.191.19h4.165c.103 0 .188.085.19.19v2.068a.191.191 0 0 1-.19.188H61.75a.191.191 0 0 0-.175.205v5.918s.027 2.317 2.406 2.419c0 0 .768.116 1.702-.598a.193.193 0 0 1 .268.039.2.2 0 0 1 .03.063l.487 1.773a.19.19 0 0 1-.065.197c-.333.263-1.53 1.07-3.51.953 0 0-4.067-.11-4.233-4.248v-6.535a.191.191 0 0 0-.19-.192h-1.175a.191.191 0 0 1-.191-.188v-1.863c0-.105.085-.19.19-.19h1.095a.19.19 0 0 0 .19-.19v-2.96c0-.099.077-.181.176-.187M18.392 10.414l-7.252 7.938h7.252v3.1H5.786v-2.577l7.436-8.036H5.786V7.924h12.606v2.49zm4.275 3.564s2.065-1.579 2.044-6.04c0 0 .232-4.603-4.837-6.956A11.188 11.188 0 0 0 15.17 0H.422A.396.396 0 0 0 0 .369v28.193a.396.396 0 0 0 .42.37l15.242-.09c2.484.024 4.991-.463 6.946-1.82 1.82-1.277 2.864-2.643 3.272-5.83 0 0 .693-4.616-3.213-7.214zM42.957 20.63a2.552 2.552 0 0 1-1.752.64H36.03v-5.175h4.56c.485-.006.967.071 1.425.23.292.1.568.242.822.418a2.457 2.457 0 0 1 .562 3.417 2.518 2.518 0 0 1-.44.47zM36.03 8.534h4.15c.442-.005.88.067 1.297.215.267.098.518.234.747.403a2.331 2.331 0 0 1 .449 3.254l-.006.008c-.098.132-.21.252-.333.359-.12.111-.25.211-.387.299-.37.205-.786.308-1.208.299H36.03V8.534zm7.636 6.278s2.588-1.145 2.577-3.91a4.886 4.886 0 0 0-2.618-4.324 5.43 5.43 0 0 0-2.547-.598h-7.993a.227.227 0 0 0-.229.225v17.483c0 .126.102.228.227.228l8.266-.054a5.832 5.832 0 0 0 3.713-1.265c.984-.79 1.918-1.97 1.906-3.588-.006-.008.143-2.714-3.302-4.197z"/>
    </g>
</svg>
