<svg xmlns="http://www.w3.org/2000/svg" width="137" height="16" viewBox="0 0 137 16">
    <g fill="none" fill-rule="nonzero">
        <path fill="#97C554" d="M121.588 13.201c.736.758 4.776 4.392 11.12.175 4.585-3.476 4.47-11.013 4.03-13.289-.153.331-5.48 11.685-15.15 13.114z"/>
        <path fill="#709B30" d="M136.738.085c-.056-.022-5.957-.805-11.79 2.851-3.623 2.27-4.101 5.594-3.936 7.808 8.48-.923 15.533-10.398 15.726-10.659z"/>
        <path fill="#FFF" d="M9.552 12.758H2.947V9.334h6.605c1.651 0 2.495.768 2.495 1.764 0 .961-.826 1.66-2.495 1.66zM9.337 7.5h-6.39V4.617h6.39c1.74 0 2.423.594 2.423 1.415 0 .751-.79 1.468-2.423 1.468zm1.687.873c2.782-.087 3.787-1.432 3.787-2.9 0-1.607-1.31-2.935-4.505-2.935H.093v12.264H10.61c2.62 0 4.577-1.066 4.577-3.354 0-1.625-1.095-3.005-4.164-3.075zm7.535-5.835v12.264h2.854V2.538H18.56zm14.428 2.324h6.282V2.538H23.851v2.324h6.282v9.94h2.854v-9.94zm8.72-2.324v12.264h2.854v-4.787h6.695V8.006h-6.695V4.652h10.877V2.538H41.707zm16.043 0v12.264h2.854V2.538H57.75zm9.546 2.987l9.459 9.277h3.23V2.538h-2.817v8.84l-9.083-8.84H64.46v12.264h2.836V5.525zM83.84 2.538v12.264h13.965V12.74h-11.11V9.37h6.659V7.465h-6.66V4.652h11.111V2.538H83.841zm33.078 0h-3.77l-4.81 4.315-4.775-4.315h-3.823l6.713 6.045-6.964 6.219h3.77l5.043-4.525 5.026 4.525h3.841l-6.982-6.237 6.73-6.027z"/>
    </g>
</svg>
