<svg xmlns="http://www.w3.org/2000/svg" width="113" height="27" viewBox="0 0 113 27">
    <g fill="none" fill-rule="evenodd">
        <path fill="#FFF" d="M7.644 4.445l.219-.004h1.336c.074.002.149.004.223.008 1.343.072 2.363 1.006 2.468 2.226.112 1.297-.637 2.275-2.043 2.57-.26.055-.531.095-.805.13h-3.69V4.441h2.166c.043.003.085.005.126.004m1.934 12.623c-.036 0-.076.003-.113.004H5.353v-5.131h5.315c1.092.381 1.811 1.305 1.815 2.439.005 1.544-1.2 2.668-2.905 2.688m3.584-6.702c1.338-.98 1.89-1.706 2.108-2.72.446-2.08-.42-3.981-2.078-5.006-1.477-1.011-4.073-.962-4.073-.962H0V4.44s2.578 0 2.578 2.368c0 0 .198 1.974-2.577 2.566v2.369s2.577 0 2.577 2.763c0 0 0 2.565-2.577 2.763v2.516c0 .05 9.5 0 9.5 0l-.045-.018c.188-.002.377-.001.566-.004 1.821-.024 3.532-.46 4.828-1.858 1.664-1.796 2.05-5.565-1.687-7.54M22.897 2.072A2.077 2.077 0 0 0 20.816 0c-1.15 0-2.082.928-2.082 2.072 0 1.145.932 2.073 2.082 2.073s2.081-.928 2.081-2.073M34.693 19.638l-.793-2.763c-3.172 1.184-3.172-1.151-3.172-1.151V9.375h3.568V6.612h-3.568V2.664H27.16v3.948h-2.38v2.763h2.38v3.687l-.002.1c0 .953-.007 1.906.001 2.859.015 1.814 1.103 3.258 2.849 3.815 1.003.32 2.032.26 3.04.135.34-.042.584-.077.757-.121.535-.103.888-.212.888-.212M57.69 19.638l-.794-2.763c-3.171 1.184-3.171-1.151-3.171-1.151V9.375h3.568V6.612h-3.568V2.664h-3.569v3.948h-2.379v2.763h2.38v3.687l-.003.1c0 .953-.006 1.906.002 2.859.015 1.814 1.103 3.258 2.848 3.815 1.004.32 2.032.26 3.04.135.34-.042.584-.077.758-.121.535-.103.887-.212.887-.212M43.087 12.054a47.428 47.428 0 0 1-2.453-.711c-.521-.17-.977-.486-.94-1.111.027-.444.246-.755.563-.961.21-.113 1.672-.774 5.141.499l.991-2.566s-2.129-1.027-5.083-.915c-.068.002-.137.006-.206.01l-.111.007c-.07.004-.138.009-.206.015l-.061.005v.002a7.566 7.566 0 0 0-1.565.32c-1.242.398-2.214 1.15-2.68 2.42-.834 2.271.46 4.326 3.17 5.012.858.217 1.73.389 2.546.74.556.238 1.094.513 1.031 1.263-.062.744-.565 1.052-1.208 1.244-.053.016-.105.028-.158.041-.613.132-1.346.087-2.059-.034-.306-.06-.61-.13-.916-.195-1.12-.283-2.01-.659-2.01-.659l-.792 2.566s4.956 1.974 7.976.576l-.006-.002c1.465-.604 2.46-1.823 2.646-3.387.24-2.02-1.033-3.488-3.61-4.179M64.07 17.45c-.746-.235-1.271-.732-1.388-1.512-.118-.787.253-1.416.925-1.814 1.242-.738 2.591-.597 3.926-.351a.642.642 0 0 1 .09.023c.101.407.469 2.312-1.194 3.431-.663.389-1.494.496-2.36.223zm8.686-.18s-.32.119-.743.125c-.139-.002-.842-.081-.84-1.485h-.002c.005-.791.001-1.582.001-2.372 0-.756.004-1.511 0-2.267-.016-2.31-1.252-3.97-3.491-4.665a7.63 7.63 0 0 0-1.967-.332v-.001S63.041 6.02 59.87 7.4l.793 2.566s2.577-1.381 5.154-.987v-.003c1.13.138 1.905.899 2.033 1.918.085.665-.022.93-.819.792-1.876-.323-3.733-.217-5.492.629-1.61.773-2.328 2.093-2.236 3.814.09 1.689.974 2.904 2.571 3.514 2.019.77 3.965.529 5.709-.723.252-.181.434-.285.594-.298 0 0 1.605 2.2 4.777 1.41l-.198-2.763z"/>
        <path fill="#0FA746" d="M0 26.349h97.14v-2.763H0zM104.872 26.349h7.533v-2.763h-7.533z"/>
        <path fill="#FFF" d="M96.136 10.663c-.04-2.13-1.71-3.894-3.826-4.258-2.364-.407-4.246.406-5.777 2.169-2.18-2.84-4.774-3.053-8.226-.631V6.612h-3.568v13.224h3.568V12.48c0-2.856 2.087-3.245 2.764-3.296.055-.003.11-.006.166-.006.738 0 1.31.2 1.719.594.268.294.704 1.03.704 2.708v7.355h3.568v-.576a2.42 2.42 0 0 0 .016-.365c-.007-.448-.012-.895-.016-1.342v-4.354l.007-.91c.016-1.871 1.24-3.135 2.963-3.11.339.006.642.054.91.144.54.21 1.473.876 1.473 2.993v7.52h3.568v-8.092s-.007-.724-.013-1.081M107.607 16.77c-1.874 1.285-4.232.158-4.52-2.092-.063-.486-.055-.98-.085-1.58.033-.516-.01-1.156.13-1.753.479-2.044 2.795-2.936 4.522-1.71 2.156 1.53 2.129 5.644-.047 7.136m4.829-6.12c-.974-3.149-3.58-4.76-6.833-4.241-1.07.17-1.922.731-2.714 1.432V6.414h-3.766V26.35h3.766v-7.813c.326.288.726.592 1.192.854.198.115.406.215.622.302a4.956 4.956 0 0 0 1.991.39l-.002-.002c2.147.025 4.445-1.126 5.497-3.653.784-1.884.85-3.823.247-5.775M18.833 19.836H22.6V6.414h-3.767z"/>
    </g>
</svg>
