<svg xmlns="http://www.w3.org/2000/svg" width="149" height="50" viewBox="0 0 149 50">
    <g fill="#182873" fill-rule="evenodd">
        <path d="M22.49 14.632h-2.92v9.58a5.349 5.349 0 0 0 5.538 5.525h.458v-2.904h-.458a2.604 2.604 0 0 1-2.619-2.59v-9.611z"/>
        <path d="M24.335 18.94v2.92h.458a2.604 2.604 0 0 1 2.619 2.59v5.287a2.558 2.558 0 0 1-.758 1.83 2.617 2.617 0 0 1-1.845.758h-.458v2.92h.458a5.349 5.349 0 0 0 5.537-5.524v-5.24a5.35 5.35 0 0 0-5.553-5.54h-.458zM25.06 49.056v.853a24.876 24.876 0 0 0 12.527-3.457 25.153 25.153 0 0 0 8.914-8.965l-.742-.41a24.302 24.302 0 0 1-8.582 8.696 24.033 24.033 0 0 1-12.116 3.283M4.205 37.202C-2.557 25.738 1.25 10.962 12.71 4.196A24.079 24.079 0 0 1 24.84.852V0C11.065.057-.056 11.275 0 25.057a24.957 24.957 0 0 0 12.44 21.49l.426-.774a24.302 24.302 0 0 1-8.661-8.57M49.782 22.54l-.836.094c0 .773.11 1.578.11 2.336.001 1.654-.168 3.304-.504 4.924l.82.221c.356-1.692.536-3.416.536-5.145a30.487 30.487 0 0 0-.126-2.43M45.76 12.864l.74-.41a25.135 25.135 0 0 0-9.039-9.06l-.426.741a24.288 24.288 0 0 1 8.724 8.729"/>
        <path d="M32.823 3.646l-.3.79c11.316 4.22 17.069 16.819 12.85 28.14-4.219 11.32-16.811 17.076-28.127 12.856C5.931 41.21.177 28.612 4.396 17.29a21.873 21.873 0 0 1 9.51-11.277l-.44-.726a22.896 22.896 0 0 0-8.094 8.176C-.969 24.284 2.657 38.2 13.473 44.545 24.29 50.89 38.198 47.261 44.54 36.44c6.342-10.821 2.715-24.737-8.101-31.082a22.708 22.708 0 0 0-3.616-1.712"/>
        <path d="M34.716 41.97a19.57 19.57 0 0 1-9.67 2.62v.852a20.503 20.503 0 0 0 10.127-2.826l-.457-.647zM7.991 34.835l-.742.41a20.622 20.622 0 0 0 7.463 7.371l.425-.741a19.774 19.774 0 0 1-7.146-7.04M4.583 26.975l.836-.142c0-.648-.094-1.295-.094-1.926a19.612 19.612 0 0 1 2.571-9.644l-.741-.41a20.526 20.526 0 0 0-2.667 10.101c0 .679.032 1.358.095 2.02M44.576 25.065a19.592 19.592 0 0 1-2.635 9.66l.726.425a20.522 20.522 0 0 0 2.745-10.117l-.836.032zM38.676 9.77A20.501 20.501 0 0 0 14.87 7.134l.441.758c9.442-5.325 21.411-1.984 26.734 7.463a19.646 19.646 0 0 1 2.405 7.437l.836-.095a20.522 20.522 0 0 0-6.61-12.927"/>
        <path d="M25.06 6.708v.852c2.98.022 5.903.81 8.489 2.289l.41-.742a18.193 18.193 0 0 0-8.898-2.399M40.806 15.942l-.742.41c4.785 8.309 1.93 18.925-6.373 23.711a17.348 17.348 0 0 1-14.546 1.29l-.3.79c9.492 3.37 19.918-1.596 23.287-11.093a18.253 18.253 0 0 0-1.326-15.108M7.565 25.065h-.852c.02 3.216.89 6.369 2.524 9.139a18.4 18.4 0 0 0 6.547 6.502l.427-.726a17.474 17.474 0 0 1-8.646-14.915M16.163 9.944l-.379-.726a18.308 18.308 0 0 0-8.598 11.869l.82.19a17.456 17.456 0 0 1 8.157-11.333M25.108 26.832h.458v2.92h-.458a5.349 5.349 0 0 1-5.537-5.524v-9.597h2.918v9.581a2.604 2.604 0 0 0 2.588 2.62h.031"/>
        <path d="M30.346 24.48v5.288a5.333 5.333 0 0 1-5.538 5.509h-.457v-2.92h.457a2.617 2.617 0 0 0 1.846-.79 2.558 2.558 0 0 0 .773-1.83V24.48a2.604 2.604 0 0 0-2.603-2.605H24.351V18.94h.457a5.35 5.35 0 0 1 5.538 5.54M37.493 3.393a25.135 25.135 0 0 1 9.04 9.06l-.774.41a24.282 24.282 0 0 0-8.724-8.743l.458-.727zM12.44 46.53a25.154 25.154 0 0 1-8.977-8.917C-3.533 25.75.406 10.46 12.263 3.46A24.916 24.916 0 0 1 24.84 0v.852C11.536.942.823 11.806.913 25.117a24.104 24.104 0 0 0 11.953 20.656l-.426.758zM49.356 30.1l-.82-.221c.336-1.62.505-3.27.505-4.925 0-.773 0-1.578-.11-2.336l.835-.095c0 .806.111 1.579.111 2.415a25.063 25.063 0 0 1-.52 5.162M45.76 37.076l.74.426a25.151 25.151 0 0 1-8.913 8.95 24.874 24.874 0 0 1-12.526 3.456v-.852a24.034 24.034 0 0 0 12.116-3.283 24.301 24.301 0 0 0 8.582-8.697"/>
        <path d="M24.95 47.667C12.412 47.67 2.247 37.502 2.244 24.958A22.715 22.715 0 0 1 13.481 5.351l.442.726a22.092 22.092 0 0 0-7.888 7.797C-.07 24.3 3.429 37.701 13.849 43.808c10.42 6.106 23.815 2.606 29.92-7.819 6.104-10.425 2.605-23.827-7.815-29.933a21.825 21.825 0 0 0-3.494-1.652l.3-.79c11.762 4.344 17.779 17.404 13.438 29.172a22.702 22.702 0 0 1-21.326 14.85l.078.031z"/>
        <path d="M42.604 35.182l-.663-.458a19.597 19.597 0 0 0 2.635-9.69h.852a20.525 20.525 0 0 1-2.824 10.148M25.06 44.59a19.573 19.573 0 0 0 9.656-2.62l.442.725a20.503 20.503 0 0 1-10.113 2.747l.016-.853zM7.896 15.263a19.608 19.608 0 0 0-2.555 9.691c0 .647 0 1.294.094 1.926l-.836.095c0-.663-.094-1.358-.094-2.037A20.524 20.524 0 0 1 7.17 14.838l.725.426zM14.712 42.616a20.623 20.623 0 0 1-7.447-7.37l.742-.411a19.777 19.777 0 0 0 7.13 7.118l-.425.663zM44.45 22.76C43.23 11.994 33.518 4.255 22.757 5.475a19.604 19.604 0 0 0-7.446 2.417l-.442-.726c9.875-5.551 22.378-2.043 27.927 7.837a20.524 20.524 0 0 1 2.49 7.663l-.836.094zM7.123 21.087a18.31 18.31 0 0 1 8.662-11.87l.426.727A17.456 17.456 0 0 0 7.896 21.26l-.773-.174z"/>
        <path d="M24.95 43.2c-2.08 0-4.145-.357-6.105-1.057l.3-.79c9.019 3.245 18.959-1.44 22.201-10.464a17.37 17.37 0 0 0-1.282-14.521l.741-.41c4.967 8.766 1.89 19.901-6.873 24.87A18.226 18.226 0 0 1 24.95 43.2M9.237 34.204a18.203 18.203 0 0 1-2.524-9.14h.852a17.474 17.474 0 0 0 8.63 14.916l-.426.726a18.396 18.396 0 0 1-6.532-6.502M25.06 7.56v-.852c3.129.02 6.199.847 8.914 2.4l-.41.741a17.35 17.35 0 0 0-8.503-2.289"/>
        <g>
            <path d="M68.548 28.536c1.25 0 2.156-.931 2.156-2.209 0-1.251-.905-2.183-2.156-2.183h-4.232v4.392h4.232zm-4.232-11.765v4.1h3.673c1.145 0 1.996-.88 1.996-2.05 0-1.172-.825-2.05-1.996-2.05h-3.673zm10.035 9.796c0 1.57-.56 2.874-1.677 3.886-1.118 1.011-2.502 1.517-4.126 1.517h-7.906V13.337h7.347c1.597 0 2.928.506 4.02 1.49 1.09.986 1.65 2.237 1.65 3.754 0 1.544-.586 2.795-1.757 3.727 1.624.931 2.449 2.369 2.449 4.259zM79.45 32.049h-3.327l-.07-13.388h3.435v13.31zM76.054 16.997V14.17h1.437c1.103 0 1.997.894 1.997 1.997v.831h-3.434zM97.561 23.905c1.943.4 4.472 1.33 4.445 4.179 0 1.357-.505 2.422-1.543 3.167-1.012.72-2.29 1.092-3.807 1.092-2.742 0-4.605-1.065-5.59-3.168l1.41-.793c.754-.424 1.667-.284 2.33.27.456.383 1.07.576 1.85.576 1.225 0 1.837-.372 1.837-1.144 0-.719-1.065-1.118-2.422-1.464-1.97-.506-4.446-1.331-4.446-4.1 0-1.304.48-2.342 1.438-3.087.985-.772 2.182-1.145 3.62-1.145 2.156 0 4.019 1.012 5.057 2.822l-2.928 1.597c-.426-.905-1.144-1.358-2.13-1.358-.878 0-1.543.426-1.543 1.092 0 .718 1.065 1.118 2.422 1.464M112.627 22.52c-.692-.692-1.57-1.038-2.662-1.038-1.091 0-1.97.346-2.688 1.038-.692.666-1.039 1.544-1.039 2.582 0 2.13 1.571 3.647 3.727 3.647 2.156 0 3.727-1.517 3.727-3.647 0-1.038-.346-1.916-1.065-2.582zm1.065-3.86h3.353v12.671c0 2.05-.692 3.62-2.05 4.712-1.357 1.091-2.98 1.623-4.897 1.623-2.875 0-5.137-1.118-6.309-3.247l1.1-.63a2.666 2.666 0 0 1 2.86.144c.641.45 1.461.672 2.456.672 2.156 0 3.487-1.171 3.487-3.274v-1.437c-1.012 1.357-2.423 2.023-4.26 2.023-1.89 0-3.46-.666-4.737-1.97-1.252-1.33-1.89-2.955-1.89-4.845 0-1.89.638-3.487 1.916-4.817 1.278-1.332 2.848-1.997 4.712-1.997 1.836 0 3.247.665 4.259 2.023v-1.65zM125.377 29.069c1.064 0 1.943-.346 2.635-1.038.719-.72 1.065-1.624 1.065-2.716 0-1.09-.346-1.996-1.065-2.688-.692-.719-1.57-1.065-2.635-1.065-1.065 0-1.943.346-2.636 1.065-.692.692-1.038 1.597-1.038 2.688 0 1.092.346 1.997 1.038 2.716.693.692 1.57 1.038 2.636 1.038zm3.7-10.408h3.433v13.475h-3.433V30.4c-1.038 1.304-2.476 1.943-4.34 1.943-1.783 0-3.3-.666-4.578-2.023-1.25-1.358-1.89-3.035-1.89-5.005 0-1.97.64-3.62 1.89-4.977 1.278-1.358 2.795-2.05 4.579-2.05 1.863 0 3.3.64 4.339 1.943v-1.57zM141.866 29.069c1.065 0 1.943-.346 2.636-1.038.718-.72 1.064-1.624 1.064-2.716 0-1.09-.346-1.996-1.064-2.688-.693-.719-1.571-1.065-2.636-1.065-1.065 0-1.943.346-2.635 1.065-.692.692-1.038 1.597-1.038 2.688 0 1.092.346 1.997 1.038 2.716.692.692 1.57 1.038 2.635 1.038m5.217-8.731c1.278 1.357 1.917 3.008 1.917 4.977 0 1.97-.639 3.647-1.917 5.005-1.25 1.357-2.795 2.023-4.578 2.023-1.863 0-3.3-.639-4.312-1.943v6.894h-1.441c-1.1 0-1.993-.892-1.993-1.993v-16.64h3.434v1.57c1.011-1.304 2.449-1.943 4.312-1.943 1.783 0 3.327.692 4.578 2.05M86.7 14.17h-1.439a1.994 1.994 0 0 0-1.994 1.994v2.497h-2.316v3.3h2.316v5.537c0 3.647 1.73 5.005 6.442 4.472v-3.114c-1.97.106-3.008.08-3.008-1.358v-5.536h3.008V18.66H86.7v-4.492z"/>
        </g>
    </g>
</svg>
