<svg xmlns="http://www.w3.org/2000/svg" width="130" height="120" viewBox="0 0 130 120">
    <g fill="none" fill-rule="evenodd">
        <path fill="#B9D8F5" d="M57.987 117.75h30.09v-15.043h-30.09z"/>
        <path fill="#D2E9FF" d="M50.767 119.264H95.3v-3.025H50.767zM20.167 84.05h102.95V22.432H20.167V84.05zm108.511-67.177a3.6 3.6 0 0 0-2.554-1.059H17.152c-.921 0-1.846.353-2.548 1.059a3.597 3.597 0 0 0-1.056 2.551v71.242h116.189V19.424c-.001-.922-.352-1.848-1.059-2.551z"/>
        <path fill="#D2E9FF" d="M13.548 90.665v8.429c0 .921.35 1.847 1.056 2.55a3.604 3.604 0 0 0 2.548 1.06h108.972c.925 0 1.849-.358 2.554-1.06a3.587 3.587 0 0 0 1.058-2.55v-8.43H13.548z"/>
        <path fill="#182873" d="M127.201 32.78l-13.406 13.404-7.966-7.97-16.5 13.83-3.701-3.7-7.391 7.39-7.82-7.813L54.42 63.919l-5.822-5.817s-11.68 11.677-11.912 11.912L25.232 58.567.791 83.006l2.139 2.14 22.302-22.3L36.686 74.29l11.91-11.91 5.823 5.816L70.418 52.2l7.819 7.813 7.39-7.392 3.522 3.522 16.5-13.83 8.143 8.15 15.55-15.544-2.14-2.138z"/>
        <path fill="#182873" d="M129.784 42.106h-3.027v-6.743h-6.742v-3.026h9.77z"/>
        <path fill="#48BB4A" d="M90.706 65.203l-5.724-5.726-10.72 10.84-3.576-3.578-5.255 5.252-5.552-5.55-11.371 11.368-4.139-4.135-8.47 8.468-11.041-10.847-19.31 19.37h100.849V51.886z"/>
        <path fill="#0069FF" d="M25.823.244v38.874h15.371v10.097l11.464-10.224h39.268V.244z"/>
        <g fill="#FFF">
            <path d="M32.654 31.317h3.88v-5.235h-3.88zM37.774 31.315h3.881V21.228h-3.88zM42.892 31.319h3.884V23.47h-3.884zM48.014 31.317h3.88V12.278h-3.88zM53.132 31.32h3.88V17.332h-3.88zM58.254 31.316h3.878V8.49h-3.878zM63.371 31.321h3.882V19.454H63.37zM68.491 31.317h3.88v-9.521h-3.88zM73.609 31.317h3.881V12.278h-3.881zM78.727 31.282h3.883V6.397h-3.883z"/>
        </g>
        <path fill="#FFB900" d="M116.65 15.983a6.095 6.095 0 1 1-12.19 0 6.095 6.095 0 0 1 12.19 0"/>
        <path fill="#4FB751" d="M102.8 35.595a2.814 2.814 0 1 1 .005-5.628 2.814 2.814 0 0 1-.004 5.628z"/>
        <path fill="#1C2E72" d="M47.949 111.943a2.778 2.778 0 1 1 .004-5.555 2.778 2.778 0 0 1-.004 5.555z"/>
    </g>
</svg>
