<svg xmlns="http://www.w3.org/2000/svg" width="115" height="97" viewBox="0 0 115 97">
    <g fill="none" fill-rule="evenodd">
        <path fill="#48BB4A" d="M90.685 67.429h-4.013c-7.988 0-14.113-3.964-19.812-9.84-.571.74-1.143 1.492-1.719 2.25-2.505 3.278-5.2 6.799-8.171 10.281 7.706 7.496 17.035 13.156 29.702 13.156h4.013v13.588l23.842-20.376-23.842-20.38v11.32z"/>
        <path fill="#D2E9FF" d="M34.42 36.528c2.218-2.902 4.563-5.976 7.102-9.032-7.496-6.982-16.546-12.145-28.643-12.145H1V31.2h11.88c7.534.006 13.415 3.532 18.837 8.856a503.28 503.28 0 0 0 2.705-3.527z"/>
        <path fill="#0069FF" d="M90.685 30.071v11.393l23.842-20.38L90.685.708v13.515h-4.013c-20.965 0-32.788 15.494-43.216 29.166-9.384 12.293-17.483 22.906-30.577 22.906H1V82.15h11.88c20.969 0 32.793-15.495 43.226-29.164C65.485 40.69 73.583 30.07 86.672 30.07h4.013z"/>
        <path fill="#D2E9FF" d="M82.566 54.356c0-1.64-1.335-2.97-2.982-2.97a2.976 2.976 0 0 0-2.983 2.97c0 1.64 1.335 2.97 2.983 2.97a2.976 2.976 0 0 0 2.982-2.97"/>
        <path fill="#FFBA00" stroke="#FFBA00" d="M12.162 60.327H1v-1.9h11.162c4.909 0 9.247-1.897 13.654-5.968l.981 1.5c-4.637 4.285-9.424 6.368-14.635 6.368"/>
    </g>
</svg>
