<svg xmlns="http://www.w3.org/2000/svg" width="117" height="120" viewBox="0 0 117 120">
    <g fill="none" fill-rule="evenodd">
        <path fill="#0069FF" d="M83.668 22.85c-3.746 0-6.79-3.009-6.79-6.721s3.044-6.72 6.79-6.72c3.752 0 6.79 3.008 6.79 6.72 0 3.712-3.038 6.72-6.79 6.72zm16.297-5.495v-2.451l-3.534-.706a12.625 12.625 0 0 0-.741-2.712l2.711-2.37-1.233-2.102-3.424 1.142a13.1 13.1 0 0 0-2.02-1.992l1.157-3.4-2.132-1.213-2.395 2.691a12.674 12.674 0 0 0-2.73-.728L84.907 0h-2.468l-.713 3.511a12.84 12.84 0 0 0-2.744.728l-2.39-2.69-2.135 1.215 1.157 3.402a12.754 12.754 0 0 0-2.008 1.989l-3.434-1.142-1.23 2.103 2.714 2.375c-.34.86-.59 1.766-.733 2.703l-3.551.709.003 2.45 3.548.702c.143.942.394 1.849.736 2.71l-2.717 2.371 1.23 2.106 3.434-1.145c.59.736 1.268 1.4 2.01 1.99l-1.16 3.398 2.137 1.217 2.386-2.688c.874.336 1.792.584 2.747.727l.713 3.516h2.468l.717-3.517a13.15 13.15 0 0 0 2.739-.726l2.39 2.688 2.128-1.217-1.158-3.393a13.17 13.17 0 0 0 2.021-1.994l3.424 1.144 1.233-2.106-2.712-2.365c.341-.865.595-1.774.741-2.719l3.535-.697z"/>
        <path fill="#D2E9FF" d="M95.395 47.332c0-22.664-18.57-41.04-41.47-41.04-22.905 0-41.476 18.376-41.476 41.04l-.021 4.106a4.45 4.45 0 0 1-.302 1.59L4.283 73.233c-1.202 3.096 1.28 6.37 4.62 6.097l.62-.05c2.491-.205 4.682 1.62 4.904 4.085l1.28 14.235c.223 2.48 2.44 4.31 4.945 4.082l12.05-1.096c2.379-.216 4.521 1.427 4.904 3.76l1.945 11.874c.412 2.513 2.848 4.188 5.372 3.693l39.461-7.74c2.543-.498 4.15-2.997 3.531-5.488l-3.69-14.838a4.454 4.454 0 0 1 .066-2.385l8.873-28.837a40.537 40.537 0 0 0 2.231-13.293"/>
        <path fill="#FFF" d="M84.745 47.332c0 16.847-13.806 30.506-30.826 30.506-17.024 0-30.827-13.659-30.827-30.506 0-16.845 13.803-30.505 30.827-30.505 17.02 0 30.826 13.66 30.826 30.505"/>
        <path fill="#4FB751" d="M63.924 47.33c0 5.46-4.492 9.903-10.014 9.903-5.508 0-9.99-4.443-9.99-9.904 0-5.456 4.482-9.895 9.99-9.895 5.522 0 10.014 4.44 10.014 9.895zm13.71 1.787v-3.565l-5.224-1.044a18.17 18.17 0 0 0-1.054-3.877l3.994-3.509-1.778-3.053-5.064 1.679.024.041a18.75 18.75 0 0 0-2.919-2.89l.003.001 1.709-5.016-3.102-1.77-3.527 3.971.027.016a18.757 18.757 0 0 0-3.952-1.055l-1.056-5.193H52.13l-1.06 5.19c-1.366.207-2.68.564-3.932 1.047l.008-.005-3.523-3.97-3.117 1.77L42.22 32.9l.034-.019a18.684 18.684 0 0 0-2.95 2.925l.033-.058-5.063-1.679-1.788 3.053 4.006 3.51.011-.02a18.2 18.2 0 0 0-1.067 3.947v-.054l-5.232 1.047.008 3.565 5.224 1.039v-.057c.21 1.384.579 2.715 1.081 3.98l-.025-.043-4.006 3.494 1.788 3.067 5.063-1.684-.04-.07a18.706 18.706 0 0 0 2.995 2.962l-.072-.04-1.712 5.01 3.117 1.77 3.523-3.973-.013-.008c1.258.485 2.58.844 3.954 1.05h-.019l1.062 5.199h3.584l1.057-5.199h-.033c1.385-.207 2.72-.57 3.988-1.06l-.031.018 3.53 3.973 3.099-1.77-1.709-5.01-.04.023a18.706 18.706 0 0 0 2.962-2.927l-.03.052 5.064 1.684 1.778-3.067-3.997-3.494-.003.006a18.17 18.17 0 0 0 1.06-3.89l5.224-1.035z"/>
        <path fill="#182873" d="M104.147 48.87c-2.935 0-5.321-2.357-5.321-5.266s2.386-5.265 5.321-5.265c2.94 0 5.322 2.356 5.322 5.265 0 2.91-2.382 5.267-5.322 5.267zm12.771-4.304v-1.922l-2.77-.553a9.866 9.866 0 0 0-.58-2.126l2.127-1.855-.968-1.648-2.683.894a10.313 10.313 0 0 0-1.584-1.561l.908-2.664-1.671-.952-1.877 2.11a10.16 10.16 0 0 0-2.14-.571l-.561-2.752h-1.935l-.56 2.752c-.747.111-1.466.307-2.148.57l-1.874-2.109-1.674.952.908 2.665a9.986 9.986 0 0 0-1.573 1.561l-2.691-.895-.965 1.648 2.127 1.862a9.712 9.712 0 0 0-.574 2.117l-2.783.555.002 1.922 2.78.548c.112.738.309 1.45.577 2.123l-2.129 1.859.965 1.65 2.691-.897c.463.576.993 1.097 1.573 1.558l-.908 2.664 1.674.953 1.87-2.107c.685.263 1.405.458 2.153.57l.559 2.755h1.935l.56-2.756a10.246 10.246 0 0 0 2.147-.57l1.874 2.108 1.668-.953-.909-2.66a10.335 10.335 0 0 0 1.585-1.562l2.683.897.968-1.65-2.128-1.853c.27-.678.468-1.392.581-2.131l2.77-.546z"/>
        <path fill="#FFBA00" d="M89.664 94.838a5.152 5.152 0 0 0-5.148-5.156 5.152 5.152 0 0 0-5.148 5.156 5.152 5.152 0 0 0 5.148 5.157 5.152 5.152 0 0 0 5.148-5.157"/>
        <path fill="#0069FF" d="M7.689 45.228a3.747 3.747 0 0 0-3.744-3.75 3.747 3.747 0 0 0-3.744 3.75 3.747 3.747 0 0 0 3.744 3.75 3.747 3.747 0 0 0 3.744-3.75"/>
        <path fill="#48BB4A" d="M99.954 76.98a2.81 2.81 0 0 0-2.808-2.813 2.81 2.81 0 0 0-2.808 2.813 2.81 2.81 0 0 0 2.808 2.812 2.81 2.81 0 0 0 2.808-2.812"/>
    </g>
</svg>
