<svg xmlns="http://www.w3.org/2000/svg" width="111" height="116" viewBox="0 0 111 116">
    <g fill="none" fill-rule="evenodd">
        <path fill="#D2E9FF" d="M1.607 59.737c0 13.226 5.437 25.202 14.231 33.873L29.58 80.062c-5.272-5.201-8.537-12.387-8.537-20.325 0-15.874 13.05-28.741 29.152-28.741V11.834c-26.834 0-48.587 21.446-48.587 47.903"/>
        <path fill="#FFB900" d="M98.783 59.737c0 26.458-21.753 47.904-48.589 47.904V88.479c16.102 0 29.153-12.867 29.153-28.742h19.436z"/>
        <path fill="#48BB4A" d="M50.195 88.479v19.162c-13.42 0-25.567-5.36-34.357-14.031l13.741-13.548c5.277 5.203 12.565 8.417 20.616 8.417"/>
        <path fill="#0069FF" d="M54.325 0v31.29c12.793 1.79 22.909 11.764 24.724 24.377h31.737C108.755 25.842 84.574 2.003 54.325 0"/>
        <path fill="#D2E9FF" d="M69.872 59.737c0 10.713-8.812 19.4-19.677 19.4-10.868 0-19.678-8.687-19.678-19.4 0-10.714 8.811-19.4 19.678-19.4 10.866 0 19.677 8.686 19.677 19.4M9.092 18.88a4.222 4.222 0 0 1-4.227 4.22 4.224 4.224 0 0 1-4.23-4.22 4.227 4.227 0 0 1 4.23-4.217 4.224 4.224 0 0 1 4.227 4.217"/>
        <path fill="#182873" d="M54.546 62.845c-.085.203-.194.379-.328.529-.134.15-.311.282-.53.396-.219.115-.43.207-.636.278-.205.07-.453.131-.743.184a9.77 9.77 0 0 1-1.549.166 18.523 18.523 0 0 1-1.353.012l-.496-.006v-4.466c.071 0 .283-.004.637-.014.352-.008.64-.012.864-.012.223 0 .532.012.925.04.393.026.723.065.991.118.268.053.56.135.878.245.317.11.574.244.77.403.198.158.362.361.496.607.134.247.202.53.202.846 0 .247-.042.471-.128.674zm-5.635-8.998c.063 0 .24-.001.53-.006.29-.005.53-.009.723-.014.192-.003.451.008.777.034.327.026.602.062.825.105.223.044.469.117.736.219a2 2 0 0 1 .644.37c.16.144.297.33.409.554.111.225.167.483.167.773 0 .247-.04.471-.12.674-.08.203-.202.372-.362.509-.16.136-.327.255-.496.357-.17.101-.387.183-.65.244-.264.061-.494.11-.69.145-.196.036-.442.06-.737.073a45.98 45.98 0 0 1-.67.026c-.152.005-.36.005-.624 0a61.774 61.774 0 0 0-.462-.006v-4.057zm9.233 5.893c-.518-.66-1.299-1.114-2.345-1.36 1.331-.67 1.916-1.806 1.756-3.41-.054-.58-.217-1.085-.489-1.512a3.058 3.058 0 0 0-1.106-1.03 6.166 6.166 0 0 0-1.514-.595 12.181 12.181 0 0 0-1.877-.297v-3.33h-2.063v3.237c-.358 0-.902.01-1.635.027v-3.264h-2.064v3.33c-.295.009-.728.014-1.3.014l-2.84-.014v2.166h1.487c.678 0 1.076.3 1.192.9v3.791c.09 0 .161.004.215.014h-.215v5.31c-.071.45-.33.674-.777.674h-1.487l-.416 2.418h2.68c.17 0 .416.002.738.006.32.005.563.007.723.007v3.37h2.065v-3.33c.374.009.92.013 1.634.013v3.316h2.064v-3.369a16.548 16.548 0 0 0 1.95-.198 8.045 8.045 0 0 0 1.628-.456c.518-.207.95-.465 1.3-.773.348-.308.636-.7.864-1.176.228-.476.373-1.026.435-1.652.117-1.223-.085-2.166-.603-2.827z"/>
        <path fill="#48BB4A" d="M15.296 102.523c3.488 0 6.316 2.788 6.316 6.228 0 3.439-2.828 6.227-6.316 6.227-3.489 0-6.317-2.788-6.317-6.227 0-3.44 2.828-6.228 6.317-6.228"/>
        <path fill="#0069FF" d="M106.758 77.928c-1.741 0-3.154-1.394-3.154-3.107 0-1.714 1.413-3.108 3.154-3.108 1.739 0 3.15 1.393 3.15 3.108 0 1.712-1.412 3.107-3.15 3.107z"/>
        <path fill="#FFB900" d="M89.732 111.06c0 2.288-1.88 4.138-4.192 4.138-2.32 0-4.196-1.85-4.196-4.137 0-2.282 1.876-4.133 4.196-4.133 2.312 0 4.192 1.85 4.192 4.133"/>
    </g>
</svg>
