<svg xmlns="http://www.w3.org/2000/svg" width="110" height="38" viewBox="0 0 110 38">
    <g fill="#608AD8" fill-rule="evenodd">
        <path d="M17.026 11.12h-2.21v7.281c-.073 2.245 1.679 4.125 3.914 4.2.093.002.186.002.28-.001h.345v-2.207h-.346a1.975 1.975 0 0 1-1.983-1.968V11.12z"/>
        <path d="M18.424 14.395v2.22h.346a1.975 1.975 0 0 1 1.983 1.966V22.6a1.948 1.948 0 0 1-.573 1.391c-.372.37-.875.577-1.398.576h-.346v2.22h.346c2.235.08 4.112-1.674 4.192-3.918a3.964 3.964 0 0 0 0-.281v-3.983c.081-2.244-1.665-4.13-3.9-4.21a4.064 4.064 0 0 0-.304 0h-.346zM18.973 37.283v.648a18.778 18.778 0 0 0 9.484-2.628 19.08 19.08 0 0 0 6.748-6.813l-.561-.312a18.436 18.436 0 0 1-6.498 6.61 18.142 18.142 0 0 1-9.173 2.495M3.183 28.274C-1.936 19.56.947 8.33 9.623 3.189A18.177 18.177 0 0 1 18.805.648V0C8.377.043-.042 8.57.001 19.043a18.98 18.98 0 0 0 9.417 16.332l.323-.587a18.433 18.433 0 0 1-6.558-6.514M37.69 17.13l-.633.072c0 .588.083 1.2.083 1.775 0 1.258-.128 2.512-.382 3.743l.62.168a19.09 19.09 0 0 0 .407-3.91 23.259 23.259 0 0 0-.095-1.848M34.644 9.777l.561-.312a19.066 19.066 0 0 0-6.844-6.886l-.322.564a18.424 18.424 0 0 1 6.605 6.634"/>
        <path d="M24.85 2.771l-.227.6c8.567 3.208 12.922 12.783 9.728 21.386-3.194 8.604-12.727 12.979-21.294 9.771C4.49 31.32.134 21.745 3.328 13.141a16.608 16.608 0 0 1 7.2-8.57l-.334-.552a17.369 17.369 0 0 0-6.127 6.213c-4.8 8.224-2.055 18.8 6.134 23.622 8.188 4.822 18.719 2.064 23.52-6.16 4.8-8.224 2.055-18.8-6.134-23.622a17.163 17.163 0 0 0-2.737-1.301"/>
        <path d="M26.283 31.897a14.773 14.773 0 0 1-7.322 1.99v.649a15.478 15.478 0 0 0 7.668-2.148l-.346-.491zM6.05 26.474l-.562.312a15.642 15.642 0 0 0 5.65 5.602l.322-.563a14.999 14.999 0 0 1-5.41-5.35M3.47 20.5l.633-.107c0-.492-.072-.984-.072-1.464a14.95 14.95 0 0 1 1.947-7.33l-.561-.31a15.646 15.646 0 0 0-2.019 7.676c0 .516.024 1.032.072 1.536M33.748 19.05c-.02 2.579-.708 5.108-1.995 7.34l.55.324a15.643 15.643 0 0 0 2.078-7.689l-.633.024zM29.281 7.425a15.475 15.475 0 0 0-18.023-2.003l.334.576c7.148-4.047 16.21-1.508 20.24 5.672a14.97 14.97 0 0 1 1.82 5.652l.634-.072a15.617 15.617 0 0 0-5.005-9.825"/>
        <path d="M18.973 5.098v.648c2.255.016 4.468.615 6.426 1.74l.31-.564a13.733 13.733 0 0 0-6.736-1.824M30.893 12.116l-.56.312c3.621 6.314 1.46 14.382-4.826 18.02a13.09 13.09 0 0 1-11.013.98l-.227.6c7.187 2.562 15.08-1.213 17.63-8.43a13.92 13.92 0 0 0-1.004-11.482M5.727 19.05h-.644c.014 2.443.674 4.84 1.91 6.945a13.956 13.956 0 0 0 4.957 4.942l.323-.552a13.29 13.29 0 0 1-6.546-11.336M12.237 7.557l-.287-.551a13.911 13.911 0 0 0-6.51 9.02l.622.144a13.264 13.264 0 0 1 6.175-8.613M19.01 20.393h.346v2.219h-.347a4.056 4.056 0 0 1-4.192-4.199V11.12h2.21V18.4a1.975 1.975 0 0 0 1.958 1.992h.024"/>
        <path d="M22.975 18.605v4.019a4.047 4.047 0 0 1-4.193 4.187h-.346v-2.22h.346a1.978 1.978 0 0 0 1.398-.6c.374-.365.585-.867.585-1.391v-3.995c0-1.093-.882-1.979-1.97-1.979h-.359v-2.231h.346a4.057 4.057 0 0 1 4.193 4.21M28.385 2.579a19.066 19.066 0 0 1 6.844 6.885l-.585.312a18.42 18.42 0 0 0-6.605-6.645l.346-.552zM9.418 35.363a19.08 19.08 0 0 1-6.796-6.777C-2.675 19.57.307 7.95 9.283 2.63A18.81 18.81 0 0 1 18.806 0v.648C8.733.716.623 8.973.691 19.088a18.332 18.332 0 0 0 9.05 15.7l-.323.575zM37.367 22.876l-.621-.168a18.44 18.44 0 0 0 .382-3.743c0-.588 0-1.2-.083-1.775l.632-.072c0 .612.084 1.2.084 1.835a19.118 19.118 0 0 1-.394 3.923M34.644 28.178l.561.324a19.079 19.079 0 0 1-6.748 6.802 18.777 18.777 0 0 1-9.484 2.626v-.647a18.143 18.143 0 0 0 9.173-2.495 18.435 18.435 0 0 0 6.498-6.61"/>
        <path d="M18.89 36.227C9.397 36.23 1.7 28.502 1.7 18.968a17.276 17.276 0 0 1 8.506-14.901l.335.551a16.757 16.757 0 0 0-5.972 5.926c-4.621 7.923-1.973 18.109 5.916 22.75 7.89 4.641 18.03 1.98 22.652-5.942 4.621-7.923 1.972-18.109-5.917-22.75a16.495 16.495 0 0 0-2.645-1.255l.227-.6c8.905 3.3 13.46 13.227 10.174 22.17-2.495 6.79-8.94 11.295-16.146 11.286l.06.024z"/>
        <path d="M32.255 26.738l-.502-.348a14.937 14.937 0 0 0 1.995-7.365h.645a15.644 15.644 0 0 1-2.138 7.713M18.973 33.888a14.775 14.775 0 0 0 7.31-1.991l.335.551a15.477 15.477 0 0 1-7.657 2.088l.012-.648zM5.978 11.6a14.946 14.946 0 0 0-1.935 7.365c0 .492 0 .984.072 1.464l-.633.072c0-.504-.072-1.032-.072-1.548a15.645 15.645 0 0 1 2.019-7.677l.55.324zM11.138 32.388A15.643 15.643 0 0 1 5.5 26.786l.562-.311a15.002 15.002 0 0 0 5.399 5.41l-.323.503zM33.652 17.298C32.73 9.115 25.376 3.234 17.23 4.16c-1.983.225-3.9.85-5.637 1.837l-.335-.552C18.734 1.227 28.2 3.894 32.4 11.402a15.64 15.64 0 0 1 1.886 5.824l-.634.072zM5.393 16.026a13.911 13.911 0 0 1 6.557-9.02l.323.551a13.263 13.263 0 0 0-6.295 8.601l-.585-.132z"/>
        <path d="M18.89 32.832c-1.575 0-3.139-.271-4.623-.803l.227-.6c6.829 2.465 14.354-1.096 16.809-7.953a13.246 13.246 0 0 0-.97-11.037l.56-.311c3.76 6.662 1.43 15.125-5.204 18.901a13.758 13.758 0 0 1-6.8 1.803M6.993 25.995a13.874 13.874 0 0 1-1.91-6.946h.644a13.29 13.29 0 0 0 6.534 11.336l-.323.552a13.954 13.954 0 0 1-4.945-4.942M18.973 5.746v-.648c2.368.016 4.693.644 6.749 1.824l-.31.563a13.097 13.097 0 0 0-6.439-1.739M48.868 21.688c.948 0 1.633-.709 1.633-1.68 0-.95-.685-1.658-1.633-1.658h-3.204v3.338h3.204zm-3.204-8.942v3.115h2.781c.867 0 1.512-.667 1.512-1.557 0-.89-.625-1.558-1.512-1.558h-2.78zm7.598 7.445c0 1.193-.423 2.184-1.27 2.953-.846.769-1.894 1.153-3.124 1.153h-5.985v-14.16h5.562c1.21 0 2.217.384 3.043 1.132.827.749 1.25 1.7 1.25 2.853 0 1.173-.444 2.124-1.33 2.832 1.229.708 1.854 1.8 1.854 3.237zM57.122 24.357h-2.519l-.052-10.175h2.6v10.115zM54.551 12.918v-2.15h1.088c.835 0 1.512.68 1.512 1.518v.632h-2.6zM70.834 18.167c1.471.304 3.386 1.012 3.365 3.177 0 1.031-.383 1.84-1.168 2.407-.766.546-1.734.83-2.882.83-2.076 0-3.487-.81-4.232-2.408l1.067-.603c.57-.322 1.262-.216 1.764.206.345.29.81.438 1.4.438.928 0 1.391-.284 1.391-.87 0-.547-.806-.85-1.833-1.113-1.492-.384-3.366-1.011-3.366-3.116 0-.99.363-1.78 1.088-2.346.746-.587 1.653-.87 2.74-.87 1.633 0 3.044.769 3.83 2.144l-2.217 1.214c-.322-.688-.866-1.031-1.612-1.031-.665 0-1.169.323-1.169.829 0 .546.806.85 1.834 1.112M82.24 17.116c-.524-.526-1.189-.79-2.015-.79-.826 0-1.491.264-2.035.79-.524.505-.786 1.173-.786 1.962 0 1.618 1.189 2.772 2.821 2.772 1.632 0 2.821-1.154 2.821-2.772 0-.79-.262-1.457-.806-1.962zm.806-2.934h2.54v9.63c0 1.558-.525 2.751-1.552 3.58-1.028.83-2.257 1.234-3.708 1.234-2.177 0-3.89-.85-4.777-2.467l.832-.479a2.012 2.012 0 0 1 2.166.109c.486.342 1.107.511 1.86.511 1.632 0 2.64-.89 2.64-2.488v-1.093c-.767 1.032-1.835 1.538-3.225 1.538-1.43 0-2.62-.506-3.587-1.497-.948-1.012-1.431-2.246-1.431-3.682s.483-2.65 1.45-3.662c.968-1.011 2.157-1.517 3.568-1.517 1.39 0 2.458.506 3.224 1.537v-1.254zM91.893 22.092c.806 0 1.471-.263 1.995-.789.544-.546.806-1.234.806-2.063 0-.83-.262-1.517-.806-2.044-.524-.546-1.19-.809-1.995-.809-.806 0-1.471.263-1.995.81-.524.526-.786 1.213-.786 2.043 0 .83.262 1.517.786 2.063.524.526 1.189.79 1.995.79zm2.801-7.91h2.6v10.242h-2.6v-1.32c-.786.991-1.874 1.477-3.285 1.477-1.35 0-2.499-.506-3.466-1.538-.947-1.032-1.43-2.306-1.43-3.803 0-1.497.483-2.752 1.43-3.783.967-1.032 2.116-1.558 3.466-1.558 1.41 0 2.5.486 3.285 1.477v-1.194zM104.377 22.092c.806 0 1.471-.263 1.995-.789.544-.546.806-1.234.806-2.063 0-.83-.262-1.517-.806-2.044-.524-.546-1.19-.809-1.995-.809-.806 0-1.471.263-1.995.81-.524.526-.786 1.213-.786 2.043 0 .83.262 1.517.786 2.063.524.526 1.189.79 1.995.79m3.95-6.636c.967 1.031 1.45 2.286 1.45 3.783 0 1.497-.483 2.771-1.45 3.803-.948 1.032-2.116 1.538-3.467 1.538-1.41 0-2.498-.486-3.264-1.477v5.24h-1.091a1.511 1.511 0 0 1-1.509-1.515V14.182h2.6v1.194c.766-.991 1.854-1.477 3.264-1.477 1.35 0 2.52.526 3.467 1.558M62.612 10.769h-1.09c-.834 0-1.51.678-1.51 1.515v1.898H58.26v2.509h1.753v4.208c0 2.771 1.31 3.803 4.877 3.398V21.93c-1.491.081-2.277.061-2.277-1.031V16.69h2.277v-2.509h-2.277V10.77z"/>
    </g>
</svg>
