<svg xmlns="http://www.w3.org/2000/svg" width="129" height="28" viewBox="0 0 129 28">
    <g fill="none" fill-rule="nonzero">
        <path fill="#FFF" d="M40.753 20.946v-5.87h3.957c2.075 0 3.426 1.184 3.426 3.007 0 1.798-1.327 2.863-3.57 2.863h-3.813zm3.33-12.97c2.074 0 3.28.995 3.28 2.628 0 1.87-1.206 3.053-3.063 3.053h-3.547v-5.68h3.33zm5.163 2.486c0-2.51-1.906-4-5.163-4H38.92v16h5.646c3.426 0 5.452-1.634 5.452-4.38 0-1.916-1.278-3.36-3.45-3.857 1.737-.52 2.678-1.847 2.678-3.763zm4.851 11.999h1.833v-16h-1.833v16zm5.767-14.484h4.61V22.46h1.833V7.977h4.56V6.462H59.864v1.515zm13.658 0h4.608V22.46h1.834V7.977h4.56V6.462H73.523v1.515zm21.717 8.07c2.172-.497 3.547-2.106 3.547-4.686 0-3.077-2.124-4.9-5.72-4.9h-4.704v16h1.834v-6.2h3.522l3.547 6.2h2.172l-3.716-5.94-.482-.474zm10.037-.9h6.853v-1.443h-6.853V7.976h7.576V6.462h-9.409v16h9.482v-1.515h-7.649v-5.8zm18.436-.851l4.85-7.81h-2.22l-3.644 6.342-.144.616-.145-.616-3.643-6.343h-2.195l4.85 7.81-4.996 8.166h2.245l3.74-6.58.144-.615.144.615 3.765 6.58h2.244l-4.995-8.165zm-33.54.544V7.977h3.233c2.22 0 3.523 1.254 3.523 3.384 0 2.32-1.473 3.48-3.644 3.48h-3.113z"/>
        <path fill="#008EFF" d="M5.782 0v4.348h2.785V2.731h16.71v16.39H8.566v-8.806H5.782v11.538h22.28V0H5.781zM0 6.146V28h22.278v-4.525h-2.784v1.793H2.784V8.878h16.71v8.63h2.784V6.147H0z"/>
    </g>
</svg>
