<svg xmlns="http://www.w3.org/2000/svg" width="160" height="26" viewBox="0 0 160 26">
    <g fill="none" fill-rule="evenodd">
        <path fill="#456879" d="M146.946 23.077a7.284 7.284 0 0 0 5.62 2.41c3.66.19 6.87-2.46 7.434-6.138h-3.687a3.79 3.79 0 0 1-1.344 2.117c-.698.54-1.556.821-2.432.798a3.738 3.738 0 0 1-3.053-1.412 5.652 5.652 0 0 1-1.148-3.682 5.714 5.714 0 0 1 1.148-3.698 3.72 3.72 0 0 1 3.053-1.428 3.816 3.816 0 0 1 2.432.799 3.79 3.79 0 0 1 1.344 2.117H160c-.564-3.677-3.773-6.328-7.433-6.138a7.287 7.287 0 0 0-5.62 2.41c-2.94 3.382-2.94 8.459-.001 11.843v.002zm-4.683-17.186a2.167 2.167 0 0 0 .634-1.61 2.262 2.262 0 0 0-.634-1.658 2.156 2.156 0 0 0-1.602-.645c-1.199-.052-2.214.892-2.266 2.11a1.916 1.916 0 0 0 0 .192c-.021.604.21 1.188.634 1.611a2.22 2.22 0 0 0 1.632.63 2.178 2.178 0 0 0 1.601-.632v.002zm-3.415 6.553v12.674h3.596V9.188h-5.893v3.253h2.297v.003zM126.67 9.191v2.915h2.507v13.012h3.596V12.103h2.78V9.188h-2.78v-1.47a2.788 2.788 0 0 1 .468-1.827 1.974 1.974 0 0 1 1.557-.537c.223-.01.447.012.665.064V2.191l-1.21-.092a5.035 5.035 0 0 0-3.713 1.35c-.907.9-1.36 2.251-1.36 4.051v1.688h-2.508l-.002.003zm-9.065 0v2.915h2.507v13.012h3.596V12.103h2.78V9.188h-2.78v-1.47a2.789 2.789 0 0 1 .468-1.827 1.974 1.974 0 0 1 1.557-.537c.223-.01.446.012.665.064V2.191l-1.21-.092a5.035 5.035 0 0 0-3.713 1.35c-.907.9-1.36 2.251-1.36 4.051v1.688h-2.508l-.002.003zm-4.955 14.24v1.687h3.325V14.774a5.659 5.659 0 0 0-1.708-4.39c-1.138-1.043-2.826-1.564-5.061-1.564-2.216 0-3.884.506-5 1.519a5.821 5.821 0 0 0-1.92 3.851h3.506c.26-1.577 1.368-2.365 3.323-2.365 2.236 0 3.354.972 3.354 2.916v.797c-1.894 0-3.415.046-4.563.138-.765.043-1.527.134-2.28.276-.4.102-.79.24-1.164.415-1.623.664-2.644 2.308-2.539 4.081a4.983 4.983 0 0 0 1.36 3.652c.907.92 2.287 1.381 4.14 1.381 2.357 0 4.099-.685 5.225-2.056l.002.005zm-.18-4.297c0 2.332-1.471 3.498-4.412 3.498-1.794 0-2.69-.685-2.69-2.056-.07-.731.3-1.432.938-1.78.603-.327 2.658-.49 6.163-.49v.83-.002zM100.774 9.037c-2.196 0-3.737.788-4.624 2.366V9.188h-3.323v15.928h3.596V16.83c0-2.947 1.35-4.42 4.049-4.42.273.002.547.024.818.065v-3.41l-.516-.028zm-11.24 12.979c-1.17 0-1.753-.624-1.753-1.872v-8.04h2.932V9.187h-2.931V5.045h-3.597v4.143h-2.387v2.915h2.387v8.41c0 3.13 1.531 4.694 4.595 4.694.63.02 1.259-.042 1.873-.183v-3.161l-1.12.153zM66.146 9.188v15.928h3.595v-9.238a4.047 4.047 0 0 1 .983-2.885c.716-.72 1.7-1.1 2.706-1.043a2.808 2.808 0 0 1 2.342.967c.552.767.824 1.705.771 2.654v9.545h3.594V15.11a6.642 6.642 0 0 0-1.526-4.573 5.457 5.457 0 0 0-4.306-1.718 6 6 0 0 0-3.037.721 4.445 4.445 0 0 0-1.798 1.765V9.188h-3.324zm-3.777-3.3a2.17 2.17 0 0 0 .634-1.61 2.266 2.266 0 0 0-.634-1.658 2.155 2.155 0 0 0-1.602-.644c-1.2-.053-2.214.891-2.266 2.11a1.93 1.93 0 0 0 0 .191c-.02.604.21 1.189.634 1.612a2.217 2.217 0 0 0 1.632.629 2.18 2.18 0 0 0 1.6-.63h.002zm-3.415 6.553v12.675h3.596V9.188h-5.894v3.253H58.955zm-14.7 1.013a4.477 4.477 0 0 1 6.527 0 5.968 5.968 0 0 1 0 7.396 4.477 4.477 0 0 1-6.527 0 5.968 5.968 0 0 1 0-7.396zm9.155 9.606c3-3.344 3-8.457 0-11.8a8.334 8.334 0 0 0-11.784 0c-3 3.343-3 8.456 0 11.8a8.374 8.374 0 0 0 11.784 0zm-33.601-.675a10.18 10.18 0 0 0 7.72 3.16c2.467.071 4.882-.731 6.83-2.27a9.702 9.702 0 0 0 3.474-6.139h-3.897a6.068 6.068 0 0 1-2.252 3.56 6.693 6.693 0 0 1-4.154 1.289 6.296 6.296 0 0 1-5.032-2.117c-1.217-1.411-1.825-3.304-1.825-5.678 0-2.373.608-4.26 1.825-5.662a6.318 6.318 0 0 1 5.032-2.102 6.697 6.697 0 0 1 4.154 1.289 6.068 6.068 0 0 1 2.252 3.56h3.898a9.705 9.705 0 0 0-3.475-6.138 10.523 10.523 0 0 0-6.829-2.271 10.185 10.185 0 0 0-7.72 3.161c-2.005 2.108-3.007 4.828-3.007 8.163 0 3.355 1.001 6.087 3.006 8.195z"/>
        <path fill="#F57212" d="M5.666.65c3.129 0 5.666 2.576 5.666 5.754 0 3.178-2.537 5.754-5.666 5.754C2.536 12.158 0 9.582 0 6.404 0 3.226 2.537.65 5.666.65"/>
    </g>
</svg>
