<svg xmlns="http://www.w3.org/2000/svg" width="140" height="96" viewBox="0 0 140 96">
    <g fill="none" fill-rule="evenodd">
        <path fill="#249ECF" d="M62.3.312v72.623h14.721V15.273zM33.486.623v57.663l14.72 14.649V15.273z"/>
        <path fill="#1DBDEF" d="M62.3.312l14.721 14.96h29.128L91.742.313z"/>
        <path fill="#52CDEF" d="M48.207 15.273v57.662L77.02 43.948zM77.021 43.948v28.987h29.128zM106.149 15.273H77.02v28.675z"/>
        <path fill="#9B9B9B" d="M0 86.094v9.594h6.01v-1.623H1.592v-2.604h3.972v-1.617H1.591v-2.127h4.275v-1.623zM7.634 86.094v9.594h6.011v-1.623h-4.42v-2.604h3.972v-1.617H9.226v-2.127H13.5v-1.623zM14.861 92.56l1.559-.183c.175 1.226.75 1.839 1.723 1.839.482 0 .861-.126 1.137-.376.276-.251.414-.562.414-.933 0-.218-.048-.403-.144-.555a1.063 1.063 0 0 0-.44-.377c-.198-.098-.676-.262-1.434-.493-.68-.205-1.177-.427-1.493-.667a2.53 2.53 0 0 1-.753-.945c-.186-.39-.28-.81-.28-1.258 0-.523.12-.994.359-1.413.239-.418.569-.734.99-.948.42-.213.94-.32 1.558-.32.93 0 1.655.25 2.177.752.521.502.797 1.22.828 2.154l-1.598.084c-.07-.514-.221-.874-.453-1.08-.233-.204-.564-.307-.993-.307-.43 0-.76.09-.993.268-.233.178-.349.4-.349.665 0 .26.105.48.316.659.211.178.696.375 1.454.588.802.232 1.382.475 1.739.73.357.255.63.585.818.988.189.404.283.893.283 1.469 0 .833-.258 1.533-.773 2.1-.515.567-1.32.851-2.417.851-1.937 0-3.016-1.097-3.235-3.292M24.679 95.688v-7.97H22.33v-1.624h6.28v1.623h-2.34v7.971zM29.867 95.688h1.591v-9.594h-1.591zM36.613 95.688v-9.594h1.592v4.271l3.231-4.27h2.151l-2.98 3.739 3.138 5.854H41.68l-2.181-4.508-1.294 1.61v2.898zM46.431 90.152h1.184c.723 0 1.183-.032 1.38-.095a.88.88 0 0 0 .48-.383c.123-.192.185-.447.185-.766 0-.305-.062-.55-.184-.736a.939.939 0 0 0-.5-.383c-.15-.048-.58-.072-1.296-.072h-1.249v2.435zm-1.591 5.536v-9.594h3.36c.86 0 1.473.087 1.841.259.369.172.67.47.908.896.236.426.355.935.355 1.529 0 .75-.18 1.354-.543 1.812-.361.458-.875.746-1.542.864.342.244.625.511.849.802.223.29.528.81.913 1.56l.96 1.872h-1.903l-1.155-2.087c-.416-.755-.698-1.228-.847-1.417a1.245 1.245 0 0 0-.474-.393c-.167-.072-.434-.108-.802-.108h-.329v4.005H44.84zM56.735 85.08h1.302v-1.577h-1.302v1.577zm-2.321 0h1.302v-1.577h-1.302v1.577zm-1.355 1.014h1.592v5.196c0 .808.02 1.333.059 1.578.07.423.238.75.504.981.266.231.616.347 1.051.347.37 0 .67-.082.903-.245.233-.164.392-.39.478-.68.085-.29.128-.914.128-1.869v-5.308h1.592v5.04c0 1.286-.07 2.217-.207 2.79a2.37 2.37 0 0 1-.934 1.394c-.485.356-1.124.534-1.917.534-.824 0-1.468-.147-1.93-.442a2.51 2.51 0 0 1-1.006-1.243c-.209-.535-.313-1.52-.313-2.955v-5.118zM62.903 87.717v2.73h.883c.594 0 .997-.042 1.21-.126.213-.082.388-.232.524-.449.136-.216.204-.482.204-.797 0-.32-.07-.588-.21-.807a1.039 1.039 0 0 0-.521-.44c-.207-.074-.644-.11-1.312-.11h-.778zm-1.591 7.971v-9.594h2.564c.956 0 1.58.046 1.875.138.469.148.856.465 1.16.949.305.484.457 1.108.457 1.871 0 .694-.131 1.275-.394 1.744-.263.47-.592.799-.987.989-.394.19-1.074.284-2.038.284h-1.046v3.62h-1.591zM70.728 95.688v-7.97h-2.347v-1.624h6.28v1.623H72.32v7.971zM77.094 90.885c0 1.103.21 1.931.632 2.483.421.552.944.828 1.567.828.628 0 1.148-.274 1.561-.821.413-.548.62-1.389.62-2.523 0-1.113-.202-1.935-.604-2.467-.401-.533-.927-.799-1.577-.799-.65 0-1.179.268-1.587.806-.408.536-.612 1.367-.612 2.493m-1.644.065c0-1.143.17-2.084.51-2.824.339-.74.783-1.29 1.33-1.652.549-.362 1.213-.543 1.994-.543 1.13 0 2.052.43 2.765 1.289.712.86 1.068 2.083 1.068 3.671 0 1.606-.377 2.86-1.13 3.763-.663.799-1.562 1.198-2.697 1.198-1.144 0-2.047-.395-2.71-1.185-.753-.903-1.13-2.142-1.13-3.717M86.234 90.152h1.184c.723 0 1.183-.032 1.38-.095a.88.88 0 0 0 .48-.383c.123-.192.185-.447.185-.766 0-.305-.062-.55-.184-.736a.939.939 0 0 0-.5-.383c-.15-.048-.58-.072-1.296-.072h-1.249v2.435zm-1.591 5.536v-9.594h3.36c.859 0 1.473.087 1.841.259.369.172.67.47.908.896.236.426.355.935.355 1.529 0 .75-.181 1.354-.543 1.812-.361.458-.875.746-1.542.864.342.244.625.511.849.802.223.29.528.81.913 1.56l.96 1.872H89.84l-1.154-2.087c-.416-.755-.698-1.228-.847-1.417a1.245 1.245 0 0 0-.474-.393c-.167-.072-.434-.108-.802-.108h-.329v4.005h-1.591zM97.074 91.893l-1.092-3.56-1.07 3.56h2.162zm2.936 3.795h-1.73l-.692-2.172h-3.165l-.653 2.172h-1.697l3.079-9.594h1.69l3.168 9.594zM101.121 95.688v-9.594h1.592v3.776h3.136v-3.776h1.592v9.594h-1.592v-4.195h-3.136v4.195zM113.553 91.893l-1.092-3.56-1.07 3.56h2.162zm2.936 3.795h-1.73l-.692-2.172h-3.165l-.653 2.172h-1.697l3.078-9.594h1.69l3.17 9.594zM120.579 95.688v-9.515h1.591v7.892h3.972v1.623zM127.503 95.688h1.591v-9.594h-1.591zM130.843 95.688h1.592v-9.594h-1.592zM136.012 95.688v-7.97h-2.348v-1.624h6.28v1.623h-2.34v7.971z"/>
    </g>
</svg>
