<svg xmlns="http://www.w3.org/2000/svg" width="140" height="40" viewBox="0 0 140 40">
    <g fill="none" fill-rule="evenodd">
        <g fill="#302CC5">
            <path d="M57.031 35.07c4.155 0 5.93-2.831 6.364-4.681l-2.851-.812c-.265.963-1.19 2.51-3.513 2.51-2.002 0-3.853-1.453-3.853-3.963 0-2.812 2.021-4.095 3.815-4.095 2.361 0 3.21 1.566 3.418 2.49l2.815-.886c-.435-1.925-2.21-4.51-6.233-4.51-3.74 0-6.912 2.83-6.912 7 0 4.172 3.097 6.946 6.95 6.946zm13.49-.284h2.757c-.019-.151-.095-.83-.095-1.68v-7.7h-2.87v5.341c0 .944-.604 1.605-1.568 1.605-1.02 0-1.51-.717-1.51-1.624v-5.321h-2.871v5.925c0 2 1.284 3.662 3.57 3.662.944 0 2.02-.34 2.51-1.151 0 .245.039.773.077.943zm10.75-9.38a2.827 2.827 0 0 0-.755-.094c-.755 0-1.945.302-2.436 1.359v-1.264h-2.776v9.38h2.87V30.69c0-1.869 1.04-2.548 2.191-2.548.283 0 .586.019.907.094v-2.83zm7.295 0a2.82 2.82 0 0 0-.755-.094c-.755 0-1.945.302-2.436 1.359v-1.264h-2.776v9.38h2.87V30.69c0-1.869 1.039-2.548 2.191-2.548.284 0 .585.019.906.094v-2.83zm3.386 3.567h3.759c-.038-.717-.53-1.585-1.89-1.585-1.208 0-1.812.887-1.869 1.585zm3.967 2.435l2.398.68c-.453 1.622-1.946 2.981-4.325 2.981-2.588 0-4.892-1.85-4.892-5.001 0-3.02 2.248-4.944 4.685-4.944 2.908 0 4.702 1.792 4.702 4.812 0 .396-.038.83-.057.887h-6.535c.057 1.057 1.02 1.812 2.135 1.812 1.039 0 1.624-.491 1.889-1.227zm6.879-2c0-.944.604-1.643 1.548-1.643 1.039 0 1.53.699 1.53 1.623v5.398h2.871v-5.888c0-2.058-1.058-3.737-3.419-3.737-.963 0-2.115.434-2.625 1.321v-1.075h-2.776v9.38h2.87v-5.38zm17.36-4.719c-.282-1.566-1.547-3.567-4.89-3.567-2.569 0-4.798 1.774-4.798 4.303 0 1.982 1.38 3.492 3.646 3.926l1.831.34c.888.17 1.436.66 1.436 1.339 0 .831-.718 1.397-1.889 1.397-1.832 0-2.663-1.076-2.776-2.302l-2.738.66c.189 1.887 1.775 4.284 5.477 4.284 3.191 0 4.948-2.132 4.948-4.227 0-1.907-1.323-3.548-3.872-4.02l-1.794-.34c-.926-.17-1.322-.642-1.322-1.283 0-.736.717-1.435 1.832-1.435 1.624 0 2.134 1.057 2.228 1.68l2.682-.755zm3.84 4.284h3.758c-.038-.717-.528-1.585-1.888-1.585-1.209 0-1.814.887-1.87 1.585zm3.966 2.435l2.399.68c-.454 1.622-1.946 2.981-4.325 2.981-2.588 0-4.892-1.85-4.892-5.001 0-3.02 2.248-4.944 4.684-4.944 2.908 0 4.702 1.792 4.702 4.812 0 .396-.038.83-.056.887h-6.535c.057 1.057 1.02 1.812 2.134 1.812 1.04 0 1.624-.491 1.889-1.227zm3.442.792c0-1.66 1.228-2.604 2.776-2.83l2.21-.34c.51-.075.68-.32.68-.642 0-.547-.472-1.019-1.379-1.019-1 0-1.548.68-1.605 1.378l-2.493-.51c.113-1.34 1.36-3.113 4.117-3.113 3.04 0 4.155 1.697 4.155 3.623v4.586c0 .736.095 1.359.114 1.453h-2.588c-.019-.076-.094-.415-.094-1.057-.491.793-1.398 1.321-2.644 1.321-2.059 0-3.25-1.358-3.25-2.85zm3.947.774c.85 0 1.719-.415 1.719-1.868v-.415l-1.775.283c-.605.094-1.058.377-1.058 1.038 0 .49.321.962 1.114.962zM59.354 17.965v-2.831H53.84v-2.567h4.986V9.944H53.84V7.396h5.496V4.584h-8.48v13.38h8.5zm1.912 0h2.871V4.3h-2.87v13.664zm4.991 0h2.87v-9.38h-2.87v9.38zm-.245-12.249c0 .925.755 1.68 1.662 1.68.944 0 1.7-.755 1.7-1.68 0-.924-.756-1.68-1.7-1.68a1.68 1.68 0 0 0-1.662 1.68zm8.655.132h-2.569v1.208c0 .868-.472 1.529-1.454 1.529h-.472v2.51h1.661v4.02c0 1.869 1.19 3.02 3.136 3.02.906 0 1.378-.208 1.492-.265v-2.377a3.55 3.55 0 0 1-.756.094c-.623 0-1.038-.208-1.038-.982v-3.51h1.831v-2.51h-1.831V5.848zm5.538 6.304h3.758c-.038-.717-.529-1.586-1.888-1.586-1.209 0-1.813.887-1.87 1.586zm3.966 2.434l2.399.68c-.454 1.623-1.946 2.982-4.325 2.982-2.588 0-4.892-1.85-4.892-5.001 0-3.02 2.248-4.945 4.684-4.945 2.908 0 4.703 1.793 4.703 4.812 0 .397-.038.83-.057.888h-6.535c.057 1.056 1.02 1.811 2.135 1.811 1.038 0 1.624-.49 1.888-1.227z"/>
        </g>
        <path fill="#1ACCAC" d="M18.001 5.455V.348l5.256 2.1v2.936c4.38 1.111 7.62 5.077 7.62 9.802h-5.255a4.86 4.86 0 0 0-4.862-4.86 4.86 4.86 0 0 0-4.861 4.86h-5.256c0-4.629 3.112-8.53 7.358-9.73M30.878 24.899h-5.256a4.86 4.86 0 0 1-4.862 4.86 4.859 4.859 0 0 1-4.86-4.86h-5.257c0 4.63 3.111 8.531 7.358 9.731v3.007l5.256 2.1v-5.036c4.38-1.112 7.62-5.078 7.62-9.802"/>
        <path fill="#302CC5" d="M18.815 21.919a6.882 6.882 0 0 0-.473-.39 12.788 12.788 0 0 0-1.593-1.04c-1.726-.957-3.607-1.517-5.568-1.496-2.54.026-5.12 1.022-7.764 3.283L0 18.286c3.568-3.052 7.333-4.506 11.126-4.545 2.957-.03 5.703.787 8.173 2.155.84.466 1.59.966 2.248 1.47a14.533 14.533 0 0 1 .97.814c.11.095.242.203.396.321.46.353.996.708 1.598 1.04 1.728.956 3.608 1.514 5.568 1.493 2.54-.027 5.12-1.024 7.762-3.283l3.417 3.99c-3.566 3.05-7.33 4.503-11.122 4.545-2.955.032-5.7-.783-8.17-2.149a18.186 18.186 0 0 1-2.25-1.467 14.066 14.066 0 0 1-.9-.751"/>
    </g>
</svg>
