<svg xmlns="http://www.w3.org/2000/svg" width="84" height="16" viewBox="0 0 84 16">
    <g fill="#0069FF" fill-rule="evenodd">
        <path d="M35.167 0L33.36.889l-4.708 13.795-.109.325 1.806-.889.866 1.88 4.707-13.8.105-.324L35.167 0zM23.268 0l-1.806.889-4.738 13.862 1.806-.889.865 1.876.03-.085 4.708-13.777L23.268 0zM5.518.116L4.109 1.55l1.41 1.431H18.9l-1.403-1.43L18.9.115H5.519zm17.645 13.026l.86 1.88 1.82-.889 2.771-8.111-1.81.89-.86-1.88-2.78 8.11zM2.558 6.133l1.41 1.423L2.559 9h8.274l1.407-1.444-1.399-1.423H2.558zm-1.147 6.014L0 13.582l1.411 1.431h13.39l-1.407-1.43 1.407-1.436H1.41zM75.18 8.444c-.009.651.136 1.294.42 1.872.926 1.752 3.019 2.379 4.675 1.4l.059-.036c.51-.318.93-.78 1.209-1.333.286-.582.43-1.23.42-1.885a4.038 4.038 0 0 0-.42-1.866c-.924-1.754-3.016-2.384-4.674-1.406l-.068.041c-.509.32-.926.781-1.205 1.333a4.156 4.156 0 0 0-.416 1.88zm-14.037 5.383V3.036h2.147l3.154 4.817 3.154-4.817h2.138v10.79H69.72V6.379l-3.272 4.68h-.088l-3.25-4.65v7.423l-1.967-.004zm-11.163 0l3.62-5.49-3.49-5.301h2.344l2.52 3.826 2.52-3.826h2.289L56.28 8.31l3.603 5.516H57.54l-2.646-4.045-2.655 4.045h-2.26zm-6.72-6.378h5.46v1.884h-5.46v2.61h5.745v1.884h-7.774V3.036h7.686V4.92H43.26v2.529zm29.891.995c-.017-2.256 1.273-4.292 3.251-5.133.693-.3 1.436-.45 2.184-.444a5.483 5.483 0 0 1 2.184.444c.642.274 1.226.68 1.718 1.196.474.51.85 1.114 1.104 1.777.82 2.084.381 4.484-1.113 6.094a5.29 5.29 0 0 1-1.734 1.209c-.694.3-1.438.45-2.188.444a5.297 5.297 0 0 1-2.802-.755 5.161 5.161 0 0 1-1.923-2.027 5.815 5.815 0 0 1-.68-2.8v-.005z"/>
    </g>
</svg>
