<svg xmlns="http://www.w3.org/2000/svg" width="78" height="28" viewBox="0 0 78 28">
    <g fill="none" fill-rule="evenodd">
        <g fill="#FFF">
            <path d="M58.996 16.244v-1.719c0-1.204-1.036-2.006-2.302-2.006-1.267 0-2.303.802-2.303 2.006v1.72c0 1.204 1.036 2.005 2.303 2.005 1.266 0 2.302-.801 2.302-2.006zm-2.302-5.91c2.677 0 4.868 1.821 4.868 4.368v1.377c0 2.546-2.19 4.357-4.868 4.357-2.678 0-4.868-1.81-4.868-4.357v-1.377c0-2.547 2.19-4.369 4.868-4.369zm-9.158.006h1.849c.393 0 .712.302.712.677v5.693c0 2.05-1.764 3.726-3.919 3.726H45.13c-2.155 0-3.918-1.677-3.918-3.726v-6.37h1.849c.393 0 .711.302.711.677v5.47c0 1.307 1.496 2.3 2.941 1.506.518-.285.823-.824.823-1.393v-6.26zM36.712 7.074h1.84c.394 0 .712.303.712.677v12.493h-1.84c-.394 0-.712-.303-.712-.676v-5.153h-5.455v5.83h-1.841c-.393 0-.712-.304-.712-.677V7.074h1.841c.393 0 .712.303.712.677v4.542h5.455v-5.22zM75.883 9.783c-.786 0-1.424-.606-1.424-1.355 0-.748.638-1.354 1.424-1.354.787 0 1.425.606 1.425 1.354 0 .749-.638 1.355-1.425 1.355zm-5.563 6.479v-1.72c0-1.203-1.037-2.005-2.303-2.005s-2.302.802-2.302 2.006v1.719c0 1.204 1.036 2.006 2.302 2.006s2.303-.802 2.303-2.006zm-2.303-5.911c2.677 0 4.868 1.822 4.868 4.368v1.377c0 2.547-2.19 4.357-4.868 4.357-2.677 0-4.868-1.81-4.868-4.357V7.105h1.84c.394 0 .712.302.712.676v3.07c.69-.322 1.48-.5 2.316-.5zm7.302 9.91c-.393 0-.712-.302-.712-.676V10.72h1.841c.393 0 .712.303.712.677v8.865h-1.841z"/>
        </g>
        <path fill="#FFF" d="M12.593 8.608c0-4.016-2.056-7.47-3.62-8.594-.007-.003-.12-.064-.111.096 0 .003-.002.003-.002.005C8.73 7.87 4.565 9.97 2.276 12.801c-5.284 6.532-.37 13.694 4.634 15.018 2.8.741-.647-1.31-1.09-5.643-.537-5.237 6.773-9.233 6.773-13.568"/>
        <path fill="#2BA9DF" d="M15.339 11.247c-.034-.02-.083-.035-.117.015-.092.976-1.21 3.063-2.629 4.98-4.81 6.503-2.068 9.638-.527 11.321.895.978 0 0 2.237-.998.175-.079 4.364-2.172 4.818-6.942.439-4.619-2.674-7.53-3.782-8.376"/>
    </g>
</svg>
