<svg xmlns="http://www.w3.org/2000/svg" width="84" height="17" viewBox="0 0 84 17">
    <g fill="none" fill-rule="evenodd">
        <path fill="#FFF" d="M27.152 3.4h2.111v7.585L33.08 7.08h2.593l-3.667 3.55 4.02 6.108h-2.576l-2.926-4.689-1.26 1.233v3.456h-2.111V3.4zm10.187 3.68h1.982v1.868h.037c.062-.261.183-.516.362-.766.179-.249.395-.476.648-.681a3.27 3.27 0 0 1 .843-.496c.309-.124.623-.186.945-.186.246 0 .416.006.509.018l.287.038V8.93a9.95 9.95 0 0 0-.454-.066 3.776 3.776 0 0 0-.454-.028 2.41 2.41 0 0 0-1.01.215 2.32 2.32 0 0 0-.823.635 3.12 3.12 0 0 0-.556 1.037 4.522 4.522 0 0 0-.204 1.42v4.595H37.34V7.08zm14.838 7.51c0 .262.034.448.102.56.068.113.2.169.398.169h.222c.087 0 .185-.013.296-.038v1.476a6.143 6.143 0 0 1-.648.168 3.802 3.802 0 0 1-.685.075c-.432 0-.79-.087-1.075-.262-.284-.174-.469-.479-.555-.915-.42.411-.936.71-1.547.897-.611.187-1.2.28-1.769.28-.432 0-.846-.06-1.241-.177a3.246 3.246 0 0 1-1.047-.524 2.502 2.502 0 0 1-.722-.878c-.18-.355-.269-.769-.269-1.242 0-.598.108-1.083.325-1.457.216-.374.5-.666.852-.878a3.829 3.829 0 0 1 1.185-.458c.439-.093.88-.165 1.325-.215a10.75 10.75 0 0 1 1.092-.158 5.09 5.09 0 0 0 .917-.16 1.4 1.4 0 0 0 .63-.345c.155-.155.232-.389.232-.7 0-.274-.065-.498-.195-.673a1.308 1.308 0 0 0-.481-.401 2.067 2.067 0 0 0-.64-.187 5.079 5.079 0 0 0-.666-.047c-.593 0-1.08.125-1.464.374-.382.249-.599.635-.648 1.158h-2.112c.037-.623.186-1.14.445-1.55.26-.412.59-.742.99-.99.402-.25.856-.424 1.362-.524a8.04 8.04 0 0 1 1.556-.15c.47 0 .933.05 1.39.15.457.1.867.262 1.231.486.365.224.658.514.88.869.223.354.334.787.334 1.298v4.97zm-2.112-2.69c-.321.212-.716.34-1.185.383-.47.044-.939.109-1.408.196-.223.037-.439.09-.649.159-.21.068-.395.162-.555.28-.16.118-.287.274-.38.467a1.609 1.609 0 0 0-.139.7c0 .237.068.437.204.599.136.161.3.29.49.382.192.094.402.16.63.197.229.037.436.056.621.056.235 0 .488-.031.76-.094.271-.062.527-.168.768-.317.241-.15.442-.34.602-.57.16-.23.241-.514.241-.85V11.9zm4.742-8.5h2.112v7.585l3.816-3.905h2.593l-3.668 3.55 4.02 6.108h-2.575l-2.927-4.689-1.26 1.233v3.456h-2.111V3.4zm16.764 7.66a3.46 3.46 0 0 0-.213-.972 2.593 2.593 0 0 0-.482-.813 2.387 2.387 0 0 0-.74-.56 2.167 2.167 0 0 0-.973-.215c-.37 0-.707.065-1.01.196-.302.13-.562.312-.778.542-.216.23-.389.501-.518.813-.13.31-.201.647-.213 1.008h4.927zm-4.927 1.4c0 .374.052.735.157 1.084.105.349.262.654.472.915.21.262.476.47.797.626.32.156.704.234 1.148.234.618 0 1.115-.134 1.491-.402.377-.268.658-.67.843-1.205h2c-.11.523-.302.99-.573 1.401a4.015 4.015 0 0 1-.982 1.037c-.383.28-.812.492-1.288.635a5.142 5.142 0 0 1-1.49.215c-.754 0-1.42-.125-2.001-.374a4.136 4.136 0 0 1-1.473-1.046 4.449 4.449 0 0 1-.908-1.606 6.578 6.578 0 0 1-.305-2.055c0-.685.108-1.336.324-1.953a5.008 5.008 0 0 1 .926-1.625 4.433 4.433 0 0 1 1.454-1.111c.568-.274 1.21-.411 1.927-.411.753 0 1.43.158 2.028.476a4.46 4.46 0 0 1 1.491 1.261c.395.523.682 1.124.862 1.803.179.679.225 1.38.138 2.101h-7.038zm8.946-5.38h2V8.5l.038.037c.321-.535.74-.955 1.26-1.26a3.334 3.334 0 0 1 1.722-.458c1.05 0 1.877.274 2.482.822.605.548.908 1.37.908 2.466v6.631h-2.112v-6.071c-.024-.76-.185-1.31-.481-1.653-.297-.343-.76-.514-1.39-.514-.358 0-.679.065-.963.196a2.09 2.09 0 0 0-.722.542c-.198.23-.352.501-.463.813a2.923 2.923 0 0 0-.167.99v5.697H75.59V7.08z"/>
        <path fill="#1E85B8" d="M.006 12.803c0-.418.007-.835-.002-1.253-.02-.81.038-1.609.175-2.408.233-1.335.655-2.595 1.346-3.76 1.16-1.957 2.794-3.394 4.853-4.36C7.292.592 8.25.289 9.25.139c.521-.08 1.044-.144 1.575-.139 2.253.017 4.353.57 6.247 1.807 1.857 1.213 3.252 2.816 4.09 4.876.393.97.635 1.981.762 3.017.142 1.143.15 2.291.127 3.442-.012.62-.01 1.241-.019 1.862-.005.27-.014.54-.086.804-.28 1.026-1.462 1.497-2.328.926-.386-.253-.578-.625-.648-1.07a5.67 5.67 0 0 1-.072-.901v-3.748c0-.489-.154-.923-.49-1.284-.588-.628-1.49-.651-2.15-.071-.37.327-.537.742-.573 1.22-.015.178-.02.357-.02.536-.002 1.377.003 2.752-.007 4.13-.007.78-.605 1.377-1.404 1.432a1.483 1.483 0 0 1-1.574-1.225 3.678 3.678 0 0 1-.048-.63c0-1.384.002-2.769 0-4.153a1.718 1.718 0 0 0-.487-1.222c-.66-.69-1.654-.668-2.295.04-.314.347-.45.75-.45 1.21 0 1.368-.003 2.738 0 4.106 0 .353-.044.7-.19 1.024a1.453 1.453 0 0 1-1.407.871c-.588-.02-1.084-.387-1.31-.974a2.006 2.006 0 0 1-.127-.723c.002-1.325.002-2.65-.003-3.974 0-.294-.012-.59-.1-.874-.202-.651-.639-1.067-1.313-1.176-.687-.112-1.195.21-1.577.759-.182.262-.242.558-.242.87l.002 3.772c0 .37.007.74-.077 1.105-.139.606-.725 1.267-1.61 1.203C.836 16.942.25 16.44.08 15.798c-.06-.229-.079-.463-.079-.696.007-.771.007-1.535.005-2.299.002 0 0 0 0 0"/>
    </g>
</svg>
