<svg xmlns="http://www.w3.org/2000/svg" width="130" height="68" viewBox="0 0 130 68">
    <g fill="none" fill-rule="evenodd">
        <path fill="#8189A1" d="M37.334.507L15.804 19.58V.507H0v48.717h15.804v-21.4l24.158 21.4h22.977L32 24.05 59.307.507z"/>
        <path fill="#8189A1" d="M114.026 17.93v34H0v15.731h129.83v-49.73z"/>
        <path fill="#8189A1" d="M66.038.507l-16.48 14.21H78.34v34.507h15.804V14.716h35.686V.507z"/>
        <path fill="#FFF" d="M7.627 61.586h2.57v1.407H6.158v-6.396h3.993v1.407H7.627v1.06h2.295v1.39H7.627zM17.814 56.597v6.397h-1.468v-3.72l-1.662 2.714h-.165l-1.662-2.714v3.72H11.39v-6.397h1.468l1.744 2.842 1.745-2.842zM21.713 59.613c.45 0 .78-.357.78-.823 0-.466-.33-.822-.78-.822h-.964v1.645h.964zm0-3.015c.633 0 1.166.21 1.597.639.432.43.652.94.652 1.553 0 .612-.22 1.124-.652 1.553-.431.43-.964.64-1.597.64h-.964v2.01h-1.468v-6.395h2.432zM28.082 61.696c.532 0 .973-.174 1.33-.53.359-.357.543-.813.543-1.37 0-.558-.184-1.015-.542-1.371-.358-.357-.799-.53-1.331-.53-.533 0-.982.173-1.34.53-.358.356-.533.813-.533 1.37 0 .558.175 1.014.533 1.37.358.357.807.53 1.34.53m0 1.426c-.927 0-1.716-.32-2.369-.96-.651-.639-.973-1.425-.973-2.366 0-.94.322-1.727.973-2.366.653-.64 1.442-.96 2.369-.96.927 0 1.716.32 2.368.96.652.64.973 1.425.973 2.366 0 .941-.321 1.727-.973 2.367-.652.64-1.441.96-2.368.96M33.651 62.993l-1.772-6.396h1.543l1.11 4.478 1.24-4.478h1.193l1.24 4.478 1.11-4.478h1.542l-1.772 6.396h-1.67l-1.047-3.774-1.047 3.774zM43.332 61.586h2.57v1.407h-4.038v-6.396h3.993v1.407h-2.525v1.06h2.296v1.39h-2.296zM48.563 57.968v1.644h1.102c.403 0 .734-.356.734-.822 0-.466-.33-.822-.734-.822h-1.102zm1.91 5.025l-1.212-2.101h-.698v2.101h-1.469v-6.395h2.57c.615 0 1.13.21 1.561.639.431.43.643.94.643 1.553 0 .777-.478 1.49-1.185 1.855l1.368 2.348h-1.579zM53.105 62.993h1.468v-6.396h-1.468zM59.621 56.597h1.47v6.397h-1.103L57.51 59.52v3.473H56.04v-6.397h1.102l2.478 3.473zM68.917 59.43v.548c0 .96-.303 1.718-.9 2.293-.596.567-1.349.85-2.266.85-1 0-1.827-.32-2.488-.96-.652-.639-.982-1.425-.982-2.357 0-.932.32-1.717.973-2.366.652-.649 1.45-.968 2.396-.968 1.202 0 2.258.584 2.809 1.462l-1.25.712c-.283-.438-.87-.749-1.569-.749-.541 0-1 .183-1.358.539-.358.356-.533.822-.533 1.38 0 .556.184 1.005.55 1.36.369.348.855.522 1.47.522.854 0 1.396-.33 1.643-.987h-1.716v-1.28h3.221zM72.77 62.993h1.468v-6.396H72.77zM79.286 56.597h1.469v6.397h-1.102l-2.479-3.473v3.473h-1.468v-6.397h1.102l2.478 3.473zM83.764 62.993l-2.093-6.396h1.606l1.423 4.706 1.423-4.706h1.606l-2.093 6.396zM90.113 61.586h2.57v1.407h-4.038v-6.396h3.993v1.407h-2.525v1.06h2.296v1.39h-2.296zM93.554 61.54l1.266-.73c.258.593.708.886 1.35.886.579 0 .872-.174.872-.521 0-.192-.092-.338-.284-.439-.184-.11-.533-.237-1.047-.374-.541-.146-.909-.311-1.303-.603-.376-.301-.588-.759-.588-1.343 0-.594.212-1.06.634-1.417.43-.356.936-.53 1.523-.53 1.056 0 1.882.503 2.35 1.444l-1.239.722c-.23-.485-.55-.74-1.11-.74-.441 0-.689.219-.689.484 0 .155.073.293.22.411.157.119.468.247.937.384l.596.192c.138.045.322.128.533.246.22.11.385.229.495.357.23.247.44.667.44 1.188 0 .612-.22 1.087-.66 1.443-.44.347-1.019.521-1.726.521-1.312 0-2.203-.603-2.57-1.58M103.696 56.597v1.407h-1.652v4.99h-1.47v-4.99h-1.651v-1.407zM107.402 61.696c.533 0 .974-.174 1.332-.53.357-.357.542-.813.542-1.37 0-.558-.185-1.015-.542-1.371-.358-.357-.799-.53-1.332-.53-.532 0-.981.173-1.34.53-.358.356-.532.813-.532 1.37 0 .558.174 1.014.532 1.37.359.357.808.53 1.34.53m0 1.426c-.926 0-1.716-.32-2.368-.96-.652-.639-.973-1.425-.973-2.366 0-.94.321-1.727.973-2.366.652-.64 1.442-.96 2.368-.96.928 0 1.717.32 2.369.96.652.64.973 1.425.973 2.366 0 .941-.321 1.727-.973 2.367-.652.64-1.441.96-2.369.96M113.403 57.968v1.644h1.102c.404 0 .734-.356.734-.822 0-.466-.33-.822-.734-.822h-1.102zm1.91 5.025l-1.212-2.101h-.698v2.101h-1.469v-6.395h2.57c.616 0 1.13.21 1.561.639.432.43.643.94.643 1.553 0 .777-.477 1.49-1.185 1.855l1.369 2.348h-1.58zM117.532 61.54l1.267-.73c.257.593.707.886 1.35.886.578 0 .871-.174.871-.521 0-.192-.091-.338-.284-.439-.184-.11-.533-.237-1.047-.374-.541-.146-.909-.311-1.303-.603-.376-.301-.588-.759-.588-1.343 0-.594.212-1.06.634-1.417.43-.356.936-.53 1.523-.53 1.056 0 1.882.503 2.35 1.444l-1.239.722c-.23-.485-.55-.74-1.11-.74-.441 0-.689.219-.689.484 0 .155.074.293.22.411.157.119.468.247.937.384l.596.192c.138.045.322.128.533.246.22.11.386.229.495.357.23.247.441.667.441 1.188 0 .612-.22 1.087-.66 1.443-.442.347-1.02.521-1.727.521-1.312 0-2.203-.603-2.57-1.58"/>
    </g>
</svg>
