<svg xmlns="http://www.w3.org/2000/svg" width="84" height="22" viewBox="0 0 84 22">
    <g fill="none" fill-rule="evenodd">
        <path fill="#0093DD" d="M12.572 8.954c1.005 0 1.819.818 1.819 1.824a1.822 1.822 0 0 1-1.82 1.825 1.822 1.822 0 0 1-1.818-1.825c0-1.006.814-1.824 1.819-1.824zm-6.37 1.824l6.367 6.385 4.018-4.03c.71-.71 1.86-.71 2.57 0 .71.713.71 1.866 0 2.579l-5.303 5.317a1.826 1.826 0 0 1-2.57 0l-7.65-7.671v4.56a1.826 1.826 0 0 1-1.817 1.822A1.82 1.82 0 0 1 0 17.918V3.64a1.82 1.82 0 0 1 1.817-1.821 1.82 1.82 0 0 1 1.818 1.821V8.2L11.285.53a1.826 1.826 0 0 1 2.57 0l5.302 5.317c.71.712.71 1.866 0 2.577-.71.712-1.86.712-2.57 0l-4.018-4.028-6.366 6.383z"/>
        <path fill="#68B92E" d="M66.625 11.631a1.942 1.942 0 0 0-1.936-1.945h-.22c-1.07 0-1.937.872-1.937 1.945v2.884c0 1.072.867 1.945 1.936 1.945h.22a1.942 1.942 0 0 0 1.937-1.945V11.63zm-6.345 0c0-2.313 1.865-4.203 4.168-4.204l.281.001c2.294.001 4.148 1.897 4.148 4.203v2.884c0 2.306-1.854 4.201-4.148 4.203h-.28c-2.304.002-4.169-1.89-4.169-4.203V11.63zm22.189 7.086c.615 0 1.126-.512 1.126-1.128V11.63a4.198 4.198 0 0 0-4.192-4.204l-3.53.001c-.615 0-1.127.513-1.127 1.129v9.032a1.13 1.13 0 0 0 1.126 1.128c.615 0 1.127-.511 1.127-1.128V9.687l2.404-.001c1.072 0 1.94.871 1.94 1.945v5.958c0 .618.51 1.128 1.126 1.128zM71.81 7.428c-.617 0-1.126.51-1.126 1.129v9.032c0 .62.509 1.129 1.126 1.129.618 0 1.127-.51 1.127-1.13V8.558c0-.618-.51-1.129-1.127-1.129zm0-4.588c-.617 0-1.126.51-1.126 1.128 0 .62.509 1.13 1.126 1.13.618 0 1.127-.51 1.127-1.13 0-.619-.509-1.128-1.127-1.128zM58.66 3.97c0-.618-.511-1.13-1.127-1.13h-4.272a4.199 4.199 0 0 0-4.194 4.203v7.472a4.199 4.199 0 0 0 4.194 4.203h4.272c.616 0 1.127-.51 1.127-1.128 0-.618-.511-1.13-1.127-1.13h-4.272a1.943 1.943 0 0 1-1.94-1.945V7.043c0-1.074.868-1.945 1.94-1.945h4.272c.616 0 1.127-.511 1.127-1.129zm-19.5 3.458c-.615 0-1.126.512-1.126 1.129v5.958a4.2 4.2 0 0 0 4.192 4.203h3.53c.615 0 1.127-.514 1.127-1.13V8.558c0-.621-.507-1.129-1.126-1.129-.616 0-1.126.512-1.126 1.129v7.903h-2.405a1.943 1.943 0 0 1-1.94-1.945V8.557c0-.619-.51-1.129-1.126-1.129zm-3.074-4.26a1.132 1.132 0 0 0-1.593 0l-5.038 5.053c-.375.374-.324.958-.158 1.246l5.014 8.686c.303.526 1.011.726 1.54.414a1.143 1.143 0 0 0 .413-1.54l-4.548-7.88 4.37-4.382a1.136 1.136 0 0 0 0-1.597zm-8.753-.328c-.615 0-1.126.512-1.126 1.128v13.62c0 .62.51 1.13 1.127 1.13s1.126-.51 1.126-1.13V3.969c0-.618-.51-1.128-1.127-1.128z"/>
    </g>
</svg>
