<svg xmlns="http://www.w3.org/2000/svg" width="26" height="26" viewBox="0 0 26 26">
    <g fill="none" fill-rule="evenodd">
        <rect width="26" height="26" fill="#375FA9" rx="4"/>
        <g fill="#182873">
            <path d="M6.926 4.05c1.047.001 1.91.866 1.909 1.918C8.832 7.07 7.918 7.9 6.914 7.876 5.894 7.896 5 7.046 5 5.961c0-1.053.867-1.912 1.926-1.91M8.039 19.963H5.796a.527.527 0 0 1-.527-.527v-9.57c0-.29.236-.527.527-.527h2.243c.29 0 .527.236.527.528v9.569a.527.527 0 0 1-.527.527M20.952 12.7a3.632 3.632 0 0 0-3.633-3.632h-.575a3.224 3.224 0 0 0-2.827 1.669.235.235 0 0 0-.03-.004V9.558a.219.219 0 0 0-.219-.219H10.87a.219.219 0 0 0-.22.22v10.185c0 .12.099.219.22.219h2.86c.12 0 .218-.097.218-.218V13.86c0-1.017.811-1.862 1.828-1.873.52-.006.99.202 1.33.541.334.335.541.798.541 1.309v5.908c0 .121.098.22.22.22h2.866c.12 0 .219-.098.219-.219v-7.045z"/>
        </g>
    </g>
</svg>
