<svg xmlns="http://www.w3.org/2000/svg" width="150" height="35" viewBox="0 0 150 35">
    <defs>
        <linearGradient id="a" x1="4.715%" x2="90.762%" y1="25.969%" y2="71.631%">
            <stop offset="0%" stop-color="#17B1B3"/>
            <stop offset="100%" stop-color="#148CB3"/>
        </linearGradient>
    </defs>
    <g fill="none" fill-rule="evenodd">
        <path fill="#253D4B" d="M50.204 10.59h2.159v15.845h-1.741l-8.36-11.838v11.838h-2.159V10.59h1.741l8.36 11.816zM58.005 24.443h7.546v1.992h-9.705V10.59h9.59v1.992h-7.431v4.867h6.85v1.969h-6.85zM71.658 26.435L66.99 10.59h2.275l3.715 13.038L76.93 10.59h2.182l3.948 13.038 3.715-13.038h2.275l-4.667 15.845h-2.507L78.02 13.782l-3.854 12.653zM90.001 22.836l1.858-1.042c.627 1.925 2.09 2.875 4.342 2.875 2.229 0 3.436-.973 3.436-2.444 0-.747-.301-1.313-.882-1.698-.58-.385-1.579-.77-2.949-1.2l-1.556-.498c-.348-.135-.812-.34-1.346-.588-.534-.272-.93-.543-1.185-.815a3.885 3.885 0 0 1-1.021-2.648c0-1.381.487-2.468 1.486-3.26.998-.815 2.206-1.222 3.622-1.222 2.578 0 4.551 1.38 5.503 3.463l-1.81 1.019c-.698-1.63-1.928-2.445-3.693-2.445-1.765 0-2.949.905-2.949 2.354 0 .702.256 1.222.766 1.585.511.362 1.394.746 2.648 1.131l.952.295c.185.068.464.158.859.316.812.295.998.408 1.625.747.65.34.86.589 1.254 1.042.58.566.813 1.38.813 2.376 0 1.381-.511 2.49-1.556 3.328-1.045.815-2.392 1.222-4.064 1.222-3.041 0-5.294-1.471-6.153-3.893"/>
        <path fill="#1BA6BA" d="M118.143 21.523c0-.883-.604-1.517-1.533-1.517H113.5v3.033h3.111c.93 0 1.533-.633 1.533-1.516zm-4.644-7.538v2.807h2.647c.836 0 1.416-.588 1.416-1.403 0-.815-.557-1.404-1.416-1.404h-2.647zm8.359 7.81c0 2.806-2.345 4.64-5.248 4.64h-6.826V10.59h6.362c2.833 0 5.132 1.788 5.132 4.527 0 1.313-.535 2.354-1.417 3.101 1.208.747 1.997 1.97 1.997 3.577zM134.164 14.076h-4.18v12.359h-3.715v-12.36h-4.18V10.59h12.075zM134.164 18.512c0-4.662 3.553-8.239 8.452-8.239 2.949 0 5.55 1.426 6.966 3.667l-3.204 1.81c-.72-1.221-2.114-1.946-3.762-1.946-2.88 0-4.737 1.879-4.737 4.708 0 2.83 1.858 4.709 4.737 4.709 1.648 0 3.065-.725 3.762-1.947l3.204 1.81c-1.393 2.242-3.994 3.668-6.966 3.668-4.9 0-8.452-3.577-8.452-8.24"/>
        <g>
            <path fill="url(#a)" d="M15.768.072a3.4 3.4 0 0 0-1.671.439L1.87 7.407a3.402 3.402 0 0 0-1.73 2.929L0 24.37l-.001.02v.03a3.402 3.402 0 0 0 1.672 2.913l12.084 7.14a3.4 3.4 0 0 0 1.726.473h.01a3.4 3.4 0 0 0 1.666-.439l12.225-6.896a3.402 3.402 0 0 0 1.73-2.929l.142-14.035a3.402 3.402 0 0 0-1.672-2.963L17.5.545a3.4 3.4 0 0 0-1.73-.473h-.001z"/>
            <path fill="#FFF" d="M29.583 7.685l-3.01-1.778c-1.45 2.097-2.904 4.19-4.358 6.285l-3.858 5.556c-.041.06-.092.114-.14.17l-.01-7.28c-.001-.159.024-.321-.039-.475-.01-.222-.18-.114-.273-.116-.806-.013-1.612-.014-2.419-.019-1.171.005-2.343.017-3.515.007-.252-.002-.396.08-.538.283C7.758 15.558 4.087 20.794.414 26.03c.29.532.719.987 1.258 1.305l3.085 1.823 8.199-11.795c.147.1.07.25.071.372.006 2.316.002 4.632.01 6.948 0 .13-.12.342.15.38 2.073 0 4.146-.007 6.22.01.28.003.387-.148.515-.33 3.653-5.224 7.308-10.446 10.962-15.668a3.399 3.399 0 0 0-1.3-1.39"/>
            <path fill="#9ED5DC" d="M18.168 10.163c.063.154.038.316.038.475l.012 7.28c-.977 1.374-1.953 2.748-2.931 4.12-.672.944-1.346 1.885-2.02 2.826-.043.06-.096.114-.08.197-.27-.037-.15-.25-.15-.379-.008-2.316-.004-4.632-.01-6.948 0-.123.076-.273-.071-.372l5.01-6.99c.058-.081.107-.166.202-.21"/>
        </g>
    </g>
</svg>
