<svg xmlns="http://www.w3.org/2000/svg" width="14" height="14" viewBox="0 0 14 14">
    <g fill="#8FADDA" fill-rule="evenodd">
        <path d="M13.3 7.7a.7.7 0 0 0-.7.7v3.733c0 .258-.176.467-.399.467H1.8c-.22 0-.399-.214-.399-.467V1.867c0-.258.176-.467.399-.467H5.6a.7.7 0 0 0 0-1.4H1.552C.694 0 0 .781 0 1.745v10.51C0 13.217.695 14 1.552 14h10.896c.858 0 1.552-.781 1.552-1.745V8.522c0-.094-.003-.163-.007-.215A.7.7 0 0 0 13.3 7.7"/>
        <path d="M6.399 7.603c.3.3.788.3 1.089 0L12.6 2.491V4.2a.7.7 0 0 0 1.4 0V.699A.697.697 0 0 0 13.3 0H9.8a.7.7 0 0 0 0 1.4h1.713L6.399 6.514c-.3.3-.301.788 0 1.09"/>
    </g>
</svg>
