<svg xmlns="http://www.w3.org/2000/svg" xmlns:xlink="http://www.w3.org/1999/xlink" width="84" height="13" viewBox="0 0 84 13">
    <defs>
        <path id="a" d="M0 12.804h83.985V.027H0z"/>
    </defs>
    <g fill="none" fill-rule="evenodd">
        <path fill="#FFF" d="M80.357 5.226L83.792.167h-3.75l-1.615 2.305zM78.427 10.181l1.818 2.474h3.74l-3.636-5.09z"/>
        <path fill="#109393" d="M2.879 2.293v4.04H5.78c.325 0 .593-.03.805-.088.211-.058.38-.148.504-.27a.977.977 0 0 0 .26-.475c.05-.195.074-1.376.074-1.645 0-.27-.022-.504-.065-.702a.977.977 0 0 0-.252-.487 1.131 1.131 0 0 0-.517-.282 3.35 3.35 0 0 0-.866-.09H2.88zM6.708.17c1.247 0 2.162.304 2.744.915.583.61.875 1.914.875 3.13 0 1.23-.304 2.706-.911 3.314-.607.608-1.51.911-2.708.911h-3.83v4.221H0V.17h6.708zM16.715 2.428c-.455 0-.84.03-1.153.091a1.64 1.64 0 0 0-.771.349c-.2.172-.346.413-.435.725-.09.312-.134 1.064-.134 1.566v2.528c0 .502.045 1.253.134 1.563.09.308.234.55.435.725.2.174.457.292.771.352.314.061.698.091 1.153.091h.185c.455 0 .84-.03 1.153-.09.314-.061.572-.178.772-.35.2-.171.345-.413.434-.725.09-.311.134-1.064.134-1.566V5.144c0-.503-.044-1.254-.134-1.563-.089-.309-.233-.55-.43-.721-.198-.172-.455-.286-.771-.345a6.536 6.536 0 0 0-1.158-.087h-.185zm-5.428 1.863c0-.761.093-1.411.28-1.95.187-.539.477-.98.87-1.324.393-.343.895-.594 1.505-.752.61-.16 1.34-.238 2.191-.238H17.5c.856 0 1.59.078 2.2.234.61.155 1.11.404 1.5.745.39.34.676.782.858 1.323.181.542.272 1.196.272 1.962v3.904c0 .76-.092 1.756-.277 2.295-.184.539-.471.98-.862 1.323-.39.344-.89.595-1.5.753-.61.159-1.34.238-2.191.238h-1.366c-.851 0-1.582-.079-2.191-.238-.61-.158-1.112-.41-1.505-.753a3.042 3.042 0 0 1-.87-1.323c-.187-.54-.28-1.534-.28-2.295V4.29zM26.411 10.26h4.922v2.401h-7.8V.17h2.878zM37.38 2.428c-.454 0-.838.03-1.152.091a1.64 1.64 0 0 0-.772.349c-.2.172-.345.413-.434.725-.09.312-.134 1.064-.134 1.566v2.528c0 .502.044 1.253.134 1.563.09.308.234.55.434.725.2.174.458.292.772.352.314.061.698.091 1.153.091h.185c.455 0 .839-.03 1.153-.09.314-.061.571-.178.772-.35.2-.171.344-.413.434-.725.09-.311.134-1.064.134-1.566V5.144c0-.503-.045-1.254-.134-1.563-.09-.309-.233-.55-.43-.721-.198-.172-.455-.286-.772-.345a6.534 6.534 0 0 0-1.157-.087h-.185zm-5.428 1.863c0-.761.094-1.411.28-1.95.188-.539.478-.98.87-1.324.394-.343.895-.594 1.505-.752.61-.16 1.34-.238 2.192-.238h1.365c.857 0 1.59.078 2.2.234.61.155 1.11.404 1.5.745.39.34.676.782.858 1.323.182.542.273 1.196.273 1.962v3.904c0 .76-.093 1.756-.277 2.295-.184.539-.472.98-.862 1.323-.39.344-.89.595-1.5.753-.61.159-1.34.238-2.192.238H36.8c-.851 0-1.582-.079-2.192-.238-.61-.158-1.111-.41-1.504-.753a3.043 3.043 0 0 1-.87-1.323c-.187-.54-.28-1.534-.28-2.295V4.29zM44.362.17h3.31l4.795 8.528V.17h2.7V12.66h-3.31l-4.795-8.623v8.623h-2.7z"/>
        <mask id="b" fill="#fff">
            <use xlink:href="#a"/>
        </mask>
        <path fill="#109393" d="M56.916 12.661h2.878V.17h-2.878zM61.528.17h8.854v2.4h-5.976v2.558h5.781v2.385h-5.78v2.747h5.975v2.401h-8.854zM79.504 6.415l-4.607 6.246h-3.733l4.464-6.234L71.367.17h3.75z" mask="url(#b)"/>
    </g>
</svg>
