<svg xmlns="http://www.w3.org/2000/svg" width="26" height="26" viewBox="0 0 26 26">
    <g fill="none" fill-rule="evenodd">
        <rect width="26" height="26" fill="#375FA9" rx="4"/>
        <path fill="#182873" d="M17.306 8.32l-6.318 5.953c-.222.21-.366.49-.406.794l-.215 1.616c-.029.216-.328.238-.387.029l-.828-2.948a.786.786 0 0 1 .337-.879l7.656-4.778c.137-.085.279.103.16.214m3.067-3.289L4.296 11.317a.47.47 0 0 0 .004.875l3.917 1.482 1.517 4.942a.459.459 0 0 0 .732.223l2.183-1.804a.645.645 0 0 1 .794-.022l3.939 2.897c.27.2.655.05.723-.282L20.99 5.564a.464.464 0 0 0-.618-.532"/>
    </g>
</svg>
