<svg xmlns="http://www.w3.org/2000/svg" width="26" height="26" viewBox="0 0 26 26">
    <g fill="none" fill-rule="evenodd">
        <rect width="26" height="26" fill="#375FA9" rx="4"/>
        <path fill="#182873" d="M21.015 6.245a6.688 6.688 0 0 1-2.148.817A3.38 3.38 0 0 0 16.402 6a3.374 3.374 0 0 0-3.292 4.136 9.603 9.603 0 0 1-6.964-3.52 3.365 3.365 0 0 0 1.048 4.496 3.342 3.342 0 0 1-1.53-.42c-.003.014-.003.028-.003.043a3.37 3.37 0 0 0 2.711 3.301 3.358 3.358 0 0 1-1.524.058 3.382 3.382 0 0 0 3.155 2.34A6.79 6.79 0 0 1 5 17.827a9.56 9.56 0 0 0 5.18 1.514c6.216 0 9.614-5.132 9.614-9.582 0-.147-.003-.294-.009-.437a6.85 6.85 0 0 0 1.683-1.741 6.712 6.712 0 0 1-1.94.529 3.382 3.382 0 0 0 1.487-1.865"/>
    </g>
</svg>
